#N canvas 205 295 680 333 10;
#X obj 86 102 reson~ 200 2394 5000;
#X obj 72 73 reson~ 200 782 5000;
#X obj 121 134 reson~ 200 4812 3000;
#X obj 71 156 outlet~;
#X obj 71 16 inlet~;
#X obj 260 12 inlet;
#X obj 262 46 expr $f1 \; $f1 * 2.06128 \; $f1 * 6.15345;
#X connect 0 0 3 0;
#X connect 1 0 3 0;
#X connect 2 0 3 0;
#X connect 4 0 1 0;
#X connect 4 0 0 0;
#X connect 4 0 2 0;
#X connect 5 0 6 0;
#X connect 6 0 1 2;
#X connect 6 1 0 2;
#X connect 6 2 2 2;
