#N canvas 728 22 301 197 10;
#X obj 13 23 inlet;
#X obj 88 23 inlet;
#X obj 177 19 inlet;
#X obj 13 151 outlet;
#X obj 88 86 t b f;
#X obj 178 84 t b f;
#X obj 13 120 expr $f1*-65536 - $f2*-256 - $f3 - 1;
#X obj 13 57 split 0 255;
#X obj 89 56 split 0 255;
#X obj 176 55 split 0 255;
#X connect 0 0 7 0;
#X connect 1 0 8 0;
#X connect 2 0 9 0;
#X connect 4 0 6 0;
#X connect 4 1 6 1;
#X connect 5 0 6 0;
#X connect 5 1 6 2;
#X connect 6 0 3 0;
#X connect 7 0 6 0;
#X connect 8 0 4 0;
#X connect 9 0 5 0;
