#N canvas 106 22 450 300 10;
#X obj 279 123 tripleRand 255;
#X obj 280 97 bng 15 250 50 0 empty empty empty 17 7 0 10 -262144 -1
-1;
#X obj 279 145 unpack 0 0 0;
#X obj 279 173 colour.rgb2num;
#X obj 282 217 hsl 128 15 0 127 0 0 empty empty empty -2 -8 0 10 -58729
-1 -262144 0 1;
#X msg 280 197 color \$1;
#X connect 0 0 2 0;
#X connect 1 0 0 0;
#X connect 2 0 3 0;
#X connect 2 1 3 1;
#X connect 2 2 3 2;
#X connect 3 0 5 0;
#X connect 5 0 4 0;
