#N canvas 755 330 450 300 10;
#X obj 54 97 counter 0 1 \$1;
#X obj 57 64 inlet;
#X obj 55 142 outlet;
#X obj 190 43 loadbang;
#X msg 190 69 set 1;
#X connect 0 0 2 0;
#X connect 1 0 0 0;
#X connect 3 0 4 0;
#X connect 4 0 0 0;
