#N canvas 406 22 454 304 10;
#X text 13 14 Waveshaper :: Gloubi-boulga;
#X text 14 27 Laurent de Soras on IRC;
#X obj 15 69 *~ 0.686306;
#X obj 15 47 inlet~;
#X obj 135 270 outlet~;
#X obj 134 243 /~;
#X obj 54 202 -~;
#X obj 101 159 +~ 1;
#X obj 72 159 *~;
#X obj 26 92 *~ -1;
#X obj 115 118 *~ -0.75;
#X obj 115 98 sqrt~;
#X obj 115 78 abs~;
#X obj 235 190 +~;
#X obj 14 153 dsp.exp~;
#X obj 70 180 dsp.exp~;
#X obj 114 137 dsp.exp~;
#X obj 250 165 dsp.exp~;
#X connect 2 0 9 0;
#X connect 2 0 12 0;
#X connect 2 0 14 0;
#X connect 3 0 2 0;
#X connect 5 0 4 0;
#X connect 6 0 5 0;
#X connect 7 0 8 0;
#X connect 8 0 15 0;
#X connect 9 0 8 1;
#X connect 9 0 17 0;
#X connect 10 0 16 0;
#X connect 11 0 10 0;
#X connect 12 0 11 0;
#X connect 13 0 5 1;
#X connect 14 0 6 0;
#X connect 14 0 13 0;
#X connect 15 0 6 1;
#X connect 16 0 7 0;
#X connect 17 0 13 1;
