#N canvas 543 133 483 429 10;
#X text 53 9 soft saturation from Bram de Jong and MusicDSP.org;
#X text 216 60 if x > 1 then (a+1)/2;
#X text 216 45 if x < a then x;
#X text 216 76 if x > a then (x-a)/(1+((x-a/(1-a))^2);
#N canvas 286 311 450 300 processing 0;
#X obj 52 26 inlet~;
#X obj 52 91 outlet~;
#X obj 52 116 block~ 1;
#X obj 135 29 inlet;
#X obj 52 65 fexpr~ if ($x > $f2 \, $x \, 0);
#X connect 0 0 4 0;
#X connect 3 0 4 1;
#X connect 4 0 1 0;
#X restore 41 87 pd processing;
#N canvas 858 30 528 613 oldversion 0;
#X obj 18 8 inlet~;
#X obj 172 14 inlet;
#X obj 18 63 >~;
#X obj 172 34 send \$0_a;
#X obj 77 64 throw~ \$0_x;
#X obj 18 104 *~ -1;
#X obj 43 64 >~ 1;
#X obj 40 40;
#X obj 15 339 outlet~;
#X obj 18 185 catch~ \$0_x;
#X obj 15 315 spigot~;
#X obj 314 176 sig~ 1;
#X obj 314 245 +~;
#X obj 271 160 -~;
#X obj 271 118 catch~ \$0_x;
#X obj 286 139 receive \$0_a;
#X obj 385 205 -~;
#X obj 401 185 receive \$0_a;
#X obj 270 294 /~;
#X obj 315 271 *~;
#X obj 370 244 /~;
#X obj 369 168 -~;
#X obj 384 145 receive \$0_a;
#X obj 369 125 catch~ \$0_x;
#X obj 99 232 *~ 0.5;
#X obj 99 208 +~ 1;
#X obj 99 185 receive \$0_a;
#X obj 157 325 spigot;
#X connect 0 0 2 0;
#X connect 0 0 4 0;
#X connect 0 0 6 0;
#X connect 1 0 3 0;
#X connect 2 0 5 0;
#X connect 10 0 8 0;
#X connect 11 0 12 0;
#X connect 11 0 16 0;
#X connect 12 0 19 0;
#X connect 12 0 19 1;
#X connect 13 0 18 0;
#X connect 14 0 13 0;
#X connect 15 0 13 1;
#X connect 16 0 20 1;
#X connect 17 0 16 1;
#X connect 19 0 18 1;
#X connect 20 0 12 1;
#X connect 21 0 20 0;
#X connect 22 0 21 1;
#X connect 23 0 21 0;
#X connect 25 0 24 0;
#X connect 26 0 25 0;
#X restore 219 105 pd oldversion;
#X obj 41 50 inlet~;
#X obj 92 50 inlet;
#X obj 41 120 outlet~;
#X obj 138 64 \$1;
#X obj 138 42 loadbang;
#X text 216 152 unfinished;
#X connect 4 0 8 0;
#X connect 6 0 4 0;
#X connect 7 0 4 1;
#X connect 9 0 4 1;
#X connect 10 0 9 0;
