#N canvas 563 167 470 429 10;
#X obj 18 8 inlet~;
#X obj 299 8 inlet;
#X obj 105 271 /~;
#X obj 261 69 *~;
#X obj 311 161 +~ 1;
#X obj 351 89 -;
#X msg 351 68 \$1 1;
#X obj 351 109 sig~;
#X obj 290 111 abs~;
#X obj 311 138 *~;
#X obj 261 191 +~;
#X obj 117 99 sig~;
#X obj 19 171 *~;
#X obj 54 97 abs~;
#X obj 82 130 +~;
#X obj 105 301 outlet~;
#X text 50 358 waveshaping function from Bram de Jong and MusicDSP.org
;
#X connect 0 0 3 0;
#X connect 0 0 3 1;
#X connect 0 0 8 0;
#X connect 0 0 12 0;
#X connect 0 0 13 0;
#X connect 1 0 6 0;
#X connect 1 0 11 0;
#X connect 2 0 15 0;
#X connect 3 0 10 0;
#X connect 4 0 10 1;
#X connect 5 0 7 0;
#X connect 6 0 5 0;
#X connect 7 0 9 1;
#X connect 8 0 9 0;
#X connect 9 0 4 0;
#X connect 10 0 2 1;
#X connect 11 0 14 1;
#X connect 12 0 2 0;
#X connect 13 0 14 0;
#X connect 14 0 12 1;
