#N canvas 621 22 744 357 10;
#X obj 257 128 delwrite~ \$0-del 1000;
#X obj 454 163 samplerate~;
#X floatatom 453 107 5 0 0 0 - - -;
#X obj 453 133 t b f;
#X obj 454 209 pack;
#X obj 454 232 expr (($f1/$f2) / $f1 )* 1000;
#X text 492 104 HZ;
#X text 481 252 outputs milliseconds;
#X obj 214 227 outlet~;
#X obj 214 102 inlet~;
#X obj 257 148 delread~ \$0-del 100;
#X obj 295 106 *~ 0.9;
#X floatatom 211 -43 5 0 0 0 - - -;
#X floatatom 26 -38 5 0 0 0 - - -;
#X floatatom 26 -18 5 0 0 0 - - -;
#X text 62 -37 Hz;
#X floatatom 26 2 5 0 1 0 - - -;
#X text 64 3 Feedback;
#X symbolatom 26 22 10 0 0 0 - - -;
#X obj 241 -17 coll tubepitchshift.txt;
#C restore;
#X obj 214 196 freqshift~ 5;
#X text 63 -18 Slide;
#X msg 241 16 \$1 \$2 \$3;
#X text 246 -43 reson (g \, f \, q) \, slide \, Hz delay \, feedback
\, name;
#X msg 322 16 \$4;
#X msg 373 16 \$5;
#X msg 401 15 \$6;
#X msg 430 15 \$7;
#X connect 1 0 4 0;
#X connect 2 0 3 0;
#X connect 2 0 13 0;
#X connect 3 0 1 0;
#X connect 3 1 4 1;
#X connect 4 0 5 0;
#X connect 5 0 10 0;
#X connect 9 0 20 0;
#X connect 10 0 20 0;
#X connect 11 0 0 0;
#X connect 12 0 19 0;
#X connect 13 0 3 0;
#X connect 16 0 11 1;
#X connect 19 0 22 0;
#X connect 19 0 24 0;
#X connect 19 0 25 0;
#X connect 19 0 26 0;
#X connect 19 0 27 0;
#X connect 20 0 11 0;
#X connect 20 0 8 0;
#X connect 24 0 14 0;
#X connect 25 0 2 0;
#X connect 26 0 16 0;
#X connect 27 0 18 0;
#X coords 0 -1 1 1 100 100 1 20 -60;
