#N canvas 768 22 608 523 10;
#X obj 29 23 bng 15 250 50 0 empty empty empty 17 7 0 10 -262144 -1
-1;
#X obj 30 303 pack 0 0;
#X obj 29 93 t f f;
#X msg 30 327 rc \$2 \$1;
#X obj 92 414 outlet~;
#X obj 92 352 inlet~;
#X floatatom 103 117 5 0 0 0 - - -;
#X floatatom 104 141 5 0 0 0 - - -;
#X obj 29 44 Uzi \$1;
#X obj 29 68 counter 0 1 \$1;
#X obj 29 119 / \$1;
#X obj 92 383 lattice~ \$1;
#X text 140 118 min;
#X text 141 141 max;
#X obj 166 123 vradio 10 1 0 4 empty empty empty 1 -8 0 10 -262144
-1 -1 0;
#X text 179 118 linear;
#X text 181 129 exponential;
#X obj 166 169 + 1;
#X obj 30 278 switch 4;
#X text 180 138 rev. linear;
#X text 182 150 rev. exp.;
#X obj 200 181 t b f;
#X obj 104 174 t b f;
#X text 211 224 input * scale * range + offset;
#X obj 29 207 expr $f1 *($f2 - $f3) + $f3 \; $f1 * $f1 *($f2 - $f3)
+ $f3 \; (1- $f1) *($f2 - $f3) + $f3 \; (1-$f1)^2 *($f2 - $f3) + $f3
\;;
#X obj 124 68 inlet;
#X obj 163 68 inlet;
#X obj 202 68 inlet;
#X text 128 52 min;
#X text 169 52 max;
#X text 205 52 mode;
#X connect 0 0 8 0;
#X connect 1 0 3 0;
#X connect 2 0 10 0;
#X connect 2 1 1 1;
#X connect 3 0 11 0;
#X connect 5 0 11 0;
#X connect 6 0 21 0;
#X connect 7 0 22 0;
#X connect 8 0 9 0;
#X connect 9 0 2 0;
#X connect 10 0 24 0;
#X connect 11 0 4 0;
#X connect 14 0 17 0;
#X connect 17 0 18 0;
#X connect 18 0 1 0;
#X connect 21 0 0 0;
#X connect 21 1 24 2;
#X connect 22 0 0 0;
#X connect 22 1 24 1;
#X connect 24 0 18 1;
#X connect 24 1 18 2;
#X connect 24 2 18 3;
#X connect 24 3 18 4;
#X connect 25 0 6 0;
#X connect 26 0 7 0;
#X connect 27 0 14 0;
#X coords 0 -1 1 1 150 65 1 100 100;
