#N canvas 643 22 450 300 10;
#X floatatom 274 37 5 0 0 0 - - -;
#X obj 98 28 inlet~;
#X obj 104 218 outlet~;
#X obj 132 170 line~;
#X obj 116 54 env~ 256;
#X obj 104 190 *~;
#X msg 132 147 \$1 5;
#X obj 272 15 inlet;
#X obj 318 17 loadbang;
#X obj 321 41 f \$1;
#X obj 132 122 change;
#X obj 116 83 expr if ($f1 > $f2 \, 1 \, 0);
#X connect 0 0 11 1;
#X connect 1 0 4 0;
#X connect 1 0 5 0;
#X connect 3 0 5 1;
#X connect 4 0 11 0;
#X connect 5 0 2 0;
#X connect 6 0 3 0;
#X connect 7 0 0 0;
#X connect 8 0 9 0;
#X connect 9 0 0 0;
#X connect 10 0 6 0;
#X connect 11 0 10 0;
