#N canvas 483 22 744 357 10;
#X declare -lib zexy;
#X obj 257 128 delwrite~ \$0-del 1000;
#X obj 140 234 *~;
#X obj 140 186 +~ 1;
#X obj 141 126 osc~ 100;
#X obj 454 163 samplerate~;
#X floatatom 453 107 5 0 0 0 - - -;
#X obj 453 133 t b f;
#X obj 454 209 pack;
#X obj 454 232 expr (($f1/$f2) / $f1 )* 1000;
#X text 492 104 HZ;
#X text 481 252 outputs milliseconds;
#X obj 140 268 outlet~;
#X obj 229 51 inlet~;
#X obj 257 149 delread~ \$0-del 100;
#X obj 257 108 *~ 0.9;
#X floatatom 25 -37 5 0 0 0 - - -;
#X floatatom 26 -18 5 0 0 0 - - -;
#X text 62 -37 Hz;
#X text 63 -18 Amp Mod;
#X floatatom 26 2 5 0 1 0 - - -;
#X text 64 3 Feedback;
#X obj 614 -39 import zexy;
#X text 613 -20 z~ is a zexy object;
#X floatatom 26 21 5 0 1 0 - - -;
#X text 64 22 Q;
#X obj 227 84 reson~ 1 50 100;
#X connect 1 0 11 0;
#X connect 2 0 1 0;
#X connect 3 0 2 0;
#X connect 4 0 7 0;
#X connect 5 0 6 0;
#X connect 5 0 15 0;
#X connect 6 0 4 0;
#X connect 6 1 7 1;
#X connect 7 0 8 0;
#X connect 8 0 13 0;
#X connect 12 0 25 0;
#X connect 13 0 1 1;
#X connect 14 0 0 0;
#X connect 15 0 6 0;
#X connect 15 0 25 2;
#X connect 16 0 3 0;
#X connect 19 0 14 1;
#X connect 23 0 25 3;
#X connect 25 0 1 1;
#X connect 25 0 14 0;
#X coords 0 -1 1 1 100 100 1 20 -60;
