#N canvas 705 101 735 459 10;
#X obj 202 132 swap~;
#X obj 345 137 permut~;
#X obj 115 117 tgl 15 0 empty empty empty 17 7 0 10 -262144 -1 -1 0
1;
#X obj 115 138 tgl 15 0 empty empty empty 17 7 0 10 -262144 -1 -1 0
1;
#X text 134 116 swap;
#X text 133 135 permut;
#X obj 206 170 *~;
#X obj 231 86 line;
#X msg 231 64 \$1 1000;
#X obj 231 109 *;
#X obj 210 21 inlet~;
#X obj 397 112 line;
#X msg 397 90 \$1 1000;
#X obj 397 135 *;
#X obj 352 169 *~;
#X obj 267 231 outlet~;
#X connect 0 0 6 0;
#X connect 1 0 14 0;
#X connect 2 0 8 0;
#X connect 3 0 12 0;
#X connect 6 0 15 0;
#X connect 7 0 9 1;
#X connect 7 0 9 0;
#X connect 8 0 7 0;
#X connect 9 0 6 1;
#X connect 10 0 0 0;
#X connect 10 0 1 0;
#X connect 11 0 13 1;
#X connect 11 0 13 0;
#X connect 12 0 11 0;
#X connect 13 0 14 1;
#X connect 14 0 15 0;
#X coords 0 -1 1 1 85 60 1 100 100;
