#N canvas 637 22 573 395 10;
#X obj 25 9 bng 15 250 50 0 empty empty empty 17 7 0 10 -262144 -1
-1;
#X obj 30 236 * 1.4;
#X obj 31 287 pack 0 0;
#X obj 29 93 t f f;
#X msg 32 310 rc \$2 \$1;
#X obj 112 269 outlet~;
#X obj 112 207 inlet~;
#X floatatom 103 117 5 0 0 0 - - -;
#X floatatom 104 141 5 0 0 0 - - -;
#X obj 27 36 Uzi \$1;
#X obj 28 62 counter 0 1 \$1;
#X obj 29 117 / \$1;
#X obj 112 238 lattice~ \$1;
#X text 140 118 min;
#X text 141 141 max;
#X obj 334 99 f;
#X obj 402 102 f;
#X text 432 102 max;
#X text 360 102 min;
#X obj 336 34 t b b f;
#X obj 400 32 t b b b;
#X obj 335 170 expr $f2 - $f1;
#X text 429 171 max - min = range;
#X obj 31 260 + 0.8;
#X obj 26 155 gate 2;
#X obj 59 183 expr $f1 *$f1;
#X obj 166 123 vradio 15 1 0 2 empty empty empty 1 -8 0 10 -262144
-1 -1 0;
#X text 183 122 linear;
#X text 183 138 exponential;
#X obj 165 169 + 1;
#X connect 0 0 9 0;
#X connect 1 0 23 0;
#X connect 2 0 4 0;
#X connect 3 0 11 0;
#X connect 3 1 2 1;
#X connect 4 0 12 0;
#X connect 6 0 12 0;
#X connect 7 0 15 1;
#X connect 7 0 20 0;
#X connect 7 0 23 1;
#X connect 8 0 16 1;
#X connect 8 0 19 0;
#X connect 9 0 10 0;
#X connect 10 0 3 0;
#X connect 11 0 24 1;
#X connect 12 0 5 0;
#X connect 15 0 21 0;
#X connect 16 0 21 1;
#X connect 19 0 15 0;
#X connect 19 0 0 0;
#X connect 19 1 15 0;
#X connect 19 2 21 1;
#X connect 20 0 0 0;
#X connect 20 1 15 0;
#X connect 20 2 16 0;
#X connect 21 0 1 1;
#X connect 23 0 2 0;
#X connect 24 0 1 0;
#X connect 24 1 25 0;
#X connect 25 0 1 0;
#X connect 26 0 29 0;
#X connect 29 0 24 0;
#X coords 0 -1 1 1 150 65 1 100 100;
