#N canvas 860 22 555 499 12;
#X obj 339 150 inlet~;
#X obj 339 281 outlet~;
#X obj 112 128 hsl 60 25 0 127 0 0 empty empty empty -2 -8 0 10 -258113
-1 -1 4878 1;
#X obj 363 186 dbtorms;
#X obj 339 214 *~;
#X obj 109 31 loadbang;
#X obj 109 68 f \$1;
#X obj 423 149 inlet;
#X obj 409 279 outlet;
#X connect 0 0 4 0;
#X connect 2 0 3 0;
#X connect 2 0 8 0;
#X connect 3 0 4 1;
#X connect 4 0 1 0;
#X connect 5 0 6 0;
#X connect 6 0 2 0;
#X connect 7 0 6 0;
#X coords 0 -1 1 1 85 60 1 100 100;
