#N canvas 409 166 450 300 10;
#X obj 40 234 freeverb~;
#X obj 41 203 inlet~;
#X msg 245 121 freeze \$1;
#X obj 105 137 tgl 15 0 empty empty empty 17 7 0 10 -262144 -1 -262144
0 1;
#X msg 245 146 dry \$1;
#X msg 244 171 wet \$1;
#X obj 211 145 != 1;
#X msg 176 41 0;
#X obj 174 19 loadbang;
#X obj 90 205 inlet~;
#X obj 39 257 outlet~;
#X obj 93 256 outlet~;
#X text 125 135 freeze!;
#X msg 328 141 color \$1;
#X obj 330 53 route 1;
#X msg 327 79 13;
#X msg 74 37 roomsize 0.93;
#X msg 75 58 damping 0.2;
#X connect 0 0 10 0;
#X connect 0 1 11 0;
#X connect 1 0 0 0;
#X connect 2 0 0 0;
#X connect 3 0 6 0;
#X connect 3 0 5 0;
#X connect 3 0 2 0;
#X connect 3 0 14 0;
#X connect 4 0 0 0;
#X connect 5 0 0 0;
#X connect 6 0 4 0;
#X connect 7 0 3 0;
#X connect 8 0 7 0;
#X connect 8 0 16 0;
#X connect 8 0 17 0;
#X connect 9 0 0 1;
#X connect 13 0 3 0;
#X connect 14 0 15 0;
#X connect 14 1 13 0;
#X connect 15 0 13 0;
#X connect 16 0 0 0;
#X connect 17 0 0 0;
#X coords 0 -1 1 1 85 60 1 100 100;
