#N canvas 76 22 373 852 10;
#X obj 89 30 adc~;
#X obj 84 75 dsp.granulator;
#X obj 84 263 dac~;
#X obj 84 185 dsp.gain;
#X connect 0 0 1 0;
#X connect 1 0 3 0;
#X connect 3 0 2 0;
#X connect 3 0 2 1;
