#N canvas 83 22 751 497 10;
#X declare -lib zexy;
#X declare -lib zexy;
#X declare -lib zexy;
#X declare -lib zexy;
#X obj 67 25 adc~ 1 5 6 7 8;
#X obj 66 452 dac~;
#X obj 67 350 catch~ drum;
#X obj 14 321 throw~ drum;
#X obj 211 426 throw~ drum;
#X obj 315 419 throw~ drum;
#X obj 423 399 throw~ drum;
#X obj 527 398 throw~ drum;
#X obj 270 24 env~;
#X obj 346 41 hsl 128 15 0 127 0 0 empty empty empty -2 -8 0 10 -262144
-1 -1 0 1;
#X obj 13 220 svf~ 60 0.7;
#X obj 90 220 svf~ 178 0.75;
#X obj 213 216 dsp.tube.reson;
#X obj 527 216 dsp.tube.reson;
#X obj 316 215 dsp.tube.reson;
#X obj 420 216 dsp.tube.reson;
#X obj 212 144 dsp.gain 110;
#X obj 314 141 dsp.gain 110;
#X obj 414 137 dsp.gain 110;
#X obj 525 132 dsp.gain 110;
#X obj 12 254 dsp.gain 110;
#X obj 65 379 dsp.gain;
#X obj 213 324 dsp.gain 100;
#X obj 316 330 dsp.gain 100;
#X obj 423 325 dsp.gain 100;
#X obj 527 328 dsp.gain 100;
#X connect 0 0 10 0;
#X connect 0 0 11 0;
#X connect 0 1 16 0;
#X connect 0 2 17 0;
#X connect 0 3 18 0;
#X connect 0 4 8 0;
#X connect 0 4 19 0;
#X connect 2 0 21 0;
#X connect 8 0 9 0;
#X connect 10 0 20 0;
#X connect 12 0 22 0;
#X connect 13 0 25 0;
#X connect 14 0 23 0;
#X connect 15 0 24 0;
#X connect 16 0 12 0;
#X connect 17 0 14 0;
#X connect 18 0 15 0;
#X connect 19 0 13 0;
#X connect 20 0 3 0;
#X connect 21 0 1 0;
#X connect 21 0 1 1;
#X connect 22 0 4 0;
#X connect 23 0 5 0;
#X connect 24 0 6 0;
#X connect 25 0 7 0;
