#N canvas 356 245 751 497 10;
#X obj 165 352 dac~;
#X obj 166 250 catch~ drum;
#X obj 12 345 throw~ drum;
#X obj 12 254 dsp.gain 110;
#X obj 561 0 loadbang;
#X obj 577 68 mtof;
#X floatatom 577 48 5 0 0 0 - - -;
#X obj 617 68 mtof;
#X floatatom 617 48 5 0 0 0 - - -;
#X obj 655 68 mtof;
#X floatatom 655 48 5 0 0 0 - - -;
#X obj 691 68 mtof;
#X floatatom 691 48 5 0 0 0 - - -;
#X floatatom 512 30 5 0 0 0 - - -;
#X obj 164 278 dsp.gain 100;
#X msg 575 26 60;
#X msg 615 26 56;
#X msg 653 26 50;
#X msg 689 26 45;
#X obj 631 2 bng 15 250 50 0 empty empty empty 17 7 0 10 -262144 -1
-1;
#X obj 11 317 compressor~ 4;
#X obj 96 209 svf~ 320 0.8;
#X obj 12 207 svf~ 100 0.8;
#X obj 67 25 adc~ 1;
#X connect 1 0 14 0;
#X connect 3 0 20 0;
#X connect 6 0 5 0;
#X connect 8 0 7 0;
#X connect 10 0 9 0;
#X connect 12 0 11 0;
#X connect 14 0 0 0;
#X connect 14 0 0 1;
#X connect 15 0 6 0;
#X connect 16 0 8 0;
#X connect 17 0 10 0;
#X connect 18 0 12 0;
#X connect 19 0 15 0;
#X connect 19 0 16 0;
#X connect 19 0 17 0;
#X connect 19 0 18 0;
#X connect 20 0 2 0;
#X connect 21 0 3 0;
#X connect 22 0 3 0;
#X connect 23 0 21 0;
#X connect 23 0 22 0;
