#N canvas 356 245 751 497 10;
#X obj 67 25 adc~ 1 5 6 7 8;
#X obj 66 452 dac~;
#X obj 67 350 catch~ drum;
#X obj 9 343 throw~ drum;
#X obj 211 426 throw~ drum;
#X obj 315 419 throw~ drum;
#X obj 423 399 throw~ drum;
#X obj 527 398 throw~ drum;
#X obj 12 254 dsp.gain 110;
#X obj 214 253 svf~ 100 0.9;
#X obj 317 251 svf~ 100 0.9;
#X obj 421 248 svf~ 100 0.9;
#X obj 528 247 svf~ 100 0.9;
#X obj 561 0 loadbang;
#X obj 577 68 mtof;
#X floatatom 577 48 5 0 0 0 - - -;
#X obj 617 68 mtof;
#X floatatom 617 48 5 0 0 0 - - -;
#X obj 655 68 mtof;
#X floatatom 655 48 5 0 0 0 - - -;
#X obj 691 68 mtof;
#X floatatom 691 48 5 0 0 0 - - -;
#X floatatom 512 30 5 0 0 0 - - -;
#X obj 212 114 dsp.gate 50;
#X obj 314 113 dsp.gate 50;
#X obj 413 111 dsp.gate 50;
#X obj 526 107 dsp.gate 50;
#X obj 65 378 dsp.gain 100;
#X obj 212 145 dsp.gain 100;
#X obj 314 141 dsp.gain 100;
#X obj 414 137 dsp.gain 100;
#X obj 525 132 dsp.gain 100;
#X msg 575 26 60;
#X msg 615 26 56;
#X msg 653 26 50;
#X msg 689 26 45;
#X obj 631 2 bng 15 250 50 0 empty empty empty 17 7 0 10 -262144 -1
-1;
#X obj 11 317 compressor~ 4;
#X obj 96 209 svf~ 7000 0.4;
#X obj 12 208 svf~ 100 0.8;
#X obj 213 324 dsp.gain 84;
#X obj 316 330 dsp.gain 84;
#X obj 423 325 dsp.gain 84;
#X obj 527 329 dsp.gain 84;
#X connect 0 0 38 0;
#X connect 0 0 39 0;
#X connect 0 1 23 0;
#X connect 0 2 24 0;
#X connect 0 3 25 0;
#X connect 0 4 26 0;
#X connect 2 0 27 0;
#X connect 8 0 37 0;
#X connect 9 0 40 0;
#X connect 10 0 41 0;
#X connect 11 0 42 0;
#X connect 12 0 43 0;
#X connect 14 0 9 1;
#X connect 15 0 14 0;
#X connect 16 0 10 1;
#X connect 17 0 16 0;
#X connect 18 0 11 1;
#X connect 19 0 18 0;
#X connect 20 0 12 1;
#X connect 21 0 20 0;
#X connect 22 0 9 2;
#X connect 22 0 10 2;
#X connect 22 0 11 2;
#X connect 22 0 12 2;
#X connect 23 0 28 0;
#X connect 24 0 29 0;
#X connect 25 0 30 0;
#X connect 26 0 31 0;
#X connect 27 0 1 0;
#X connect 27 0 1 1;
#X connect 28 0 9 0;
#X connect 29 0 10 0;
#X connect 30 0 11 0;
#X connect 31 0 12 0;
#X connect 32 0 15 0;
#X connect 33 0 17 0;
#X connect 34 0 19 0;
#X connect 35 0 21 0;
#X connect 36 0 32 0;
#X connect 36 0 33 0;
#X connect 36 0 34 0;
#X connect 36 0 35 0;
#X connect 37 0 3 0;
#X connect 38 0 8 0;
#X connect 39 0 8 0;
#X connect 40 0 4 0;
#X connect 41 0 5 0;
#X connect 42 0 6 0;
#X connect 43 0 7 0;
