#N canvas 468 301 863 502 10;
#X declare -lib bsaylor;
#X declare -lib bsaylor;
#X declare -lib bsaylor;
#X declare -lib bsaylor;
#X declare -lib bsaylor;
#X declare -lib bsaylor;
#X obj 74 415 dac~;
#X obj 76 19 adc~ 3 4 5 6 7 8;
#X obj 72 194 throw~ \$0-bell;
#X obj 74 285 catch~ \$0-bell;
#X obj 74 311 compressor~ 2;
#X obj 71 121 dsp.convolution;
#X obj 177 196 throw~ \$0-bell;
#X obj 285 200 throw~ \$0-bell;
#X obj 394 202 throw~ \$0-bell;
#X obj 498 203 throw~ \$0-bell;
#X obj 599 202 throw~ \$0-bell;
#X text 190 18 loading short samples works best;
#X obj 176 123 dsp.convolution;
#X obj 284 127 dsp.convolution;
#X obj 393 129 dsp.convolution;
#X obj 497 130 dsp.convolution;
#X obj 598 129 dsp.convolution;
#X text 192 36 cool trick is to load samples in each corner and have
acoustic interpolation!;
#X text 231 70 load bdwarp in left corner and tikhat in right corner
;
#X obj 74 338 dsp.gain 100;
#X obj 248 302 dsp.display;
#X connect 1 0 5 0;
#X connect 1 2 13 0;
#X connect 3 0 4 0;
#X connect 4 0 19 0;
#X connect 5 0 2 0;
#X connect 12 0 6 0;
#X connect 13 0 7 0;
#X connect 14 0 8 0;
#X connect 15 0 9 0;
#X connect 16 0 10 0;
#X connect 19 0 0 0;
#X connect 19 0 0 1;
