#N canvas 198 60 1016 677 10;
#X obj 15 465 dac~;
#X obj 15 375 catch~ drum;
#X obj 12 345 throw~ drum;
#X obj 12 254 dsp.gain 110;
#X obj 15 398 dsp.gain 100;
#X obj 67 25 adc~ 1;
#X obj 301 245 adc~ 3 4 5 6 7 8;
#X obj 677 62 dsp.granulator;
#X obj 171 536 throw~ drum;
#X obj 251 314 bellpad 400;
#X obj 175 313 bellpad 300;
#X obj 357 305 bellpad 500;
#X obj 448 308 bellpad 600;
#X obj 526 306 bellpad 700;
#X obj 643 309 bellpad 1000;
#X obj 12 207 svf~ 60 0.8;
#X obj 96 209 svf~ 200 0.6;
#X floatatom 258 149 5 0 0 0 - - -;
#X obj 99 180 svf~ 1672 0.7;
#X obj 227 24 r arduino-a0;
#X obj 432 16 r arduino-a1;
#X obj 172 347 dsp.gain 86;
#X obj 262 345 dsp.gain 86;
#X obj 358 340 dsp.gain 86;
#X obj 456 341 dsp.gain 86;
#X obj 559 343 dsp.gain 86;
#X obj 652 341 dsp.gain 86;
#X obj 677 231 throw~ drum;
#X obj 12 320 compressor~ 1.7;
#X text 293 148 Compression level;
#X floatatom 340 126 5 0 0 0 - - -;
#X text 379 125 resonance;
#X obj 171 418 compressor~ 1;
#X obj 171 451 dsp.freezer;
#X obj 431 66 > 0.99;
#X obj 432 88 change;
#X obj 677 166 dsp.gain 100;
#X obj 503 129 clip 0 100;
#X obj 748 -12 maxlib/scale 0.18 0.7 0 1;
#X obj 800 295 pack 0 0 0;
#X obj 839 248 * 29000;
#X obj 836 270 + 100;
#X obj 748 30 t f f f;
#X obj 748 10 clip 0 1;
#N canvas 0 22 450 300 pitches 0;
#X obj 59 29 inlet;
#X obj 59 53 unpack 0 0 0 0 0 0;
#X obj 59 126 outlet;
#X obj 59 103 mtof;
#X obj 105 125 outlet;
#X obj 105 102 mtof;
#X obj 153 123 outlet;
#X obj 153 100 mtof;
#X obj 201 122 outlet;
#X obj 201 99 mtof;
#X obj 250 121 outlet;
#X obj 250 98 mtof;
#X obj 298 121 outlet;
#X obj 298 98 mtof;
#X connect 0 0 1 0;
#X connect 1 0 3 0;
#X connect 1 1 5 0;
#X connect 1 2 7 0;
#X connect 1 3 9 0;
#X connect 1 4 11 0;
#X connect 1 5 13 0;
#X connect 3 0 2 0;
#X connect 5 0 4 0;
#X connect 7 0 6 0;
#X connect 9 0 8 0;
#X connect 11 0 10 0;
#X connect 13 0 12 0;
#X restore 544 -21 pd pitches ----------;
#X floatatom 748 -44 5 0 0 0 - - -;
#X msg 545 -68 94 92 87 85 82 80;
#X msg 555 -48 95 93 91 86 85 83;
#X obj 793 239 - 0;
#X obj 791 217 * 40;
#X floatatom 495 157 5 0 0 0 - - -;
#X floatatom 557 36 5 0 0 0 - - -;
#X obj 504 106 maxlib/scale 0.18 0.7 100 1.06;
#X obj 226 50 maxlib/scale 0.1 1 0.8 0.98;
#X obj 227 74 clip 0 0.98;
#X connect 1 0 4 0;
#X connect 3 0 28 0;
#X connect 4 0 0 0;
#X connect 4 0 0 1;
#X connect 5 0 15 0;
#X connect 5 0 16 0;
#X connect 5 0 18 0;
#X connect 6 0 10 0;
#X connect 6 1 9 0;
#X connect 6 2 11 0;
#X connect 6 3 12 0;
#X connect 6 4 13 0;
#X connect 6 5 14 0;
#X connect 7 0 36 0;
#X connect 9 0 22 0;
#X connect 10 0 21 0;
#X connect 11 0 23 0;
#X connect 12 0 24 0;
#X connect 13 0 25 0;
#X connect 14 0 26 0;
#X connect 15 0 3 0;
#X connect 16 0 3 0;
#X connect 17 0 32 1;
#X connect 18 0 3 0;
#X connect 19 0 53 0;
#X connect 20 0 34 0;
#X connect 20 0 38 0;
#X connect 20 0 51 0;
#X connect 20 0 52 0;
#X connect 21 0 32 0;
#X connect 22 0 32 0;
#X connect 23 0 32 0;
#X connect 24 0 32 0;
#X connect 25 0 32 0;
#X connect 26 0 32 0;
#X connect 28 0 2 0;
#X connect 30 0 10 2;
#X connect 30 0 9 2;
#X connect 30 0 11 2;
#X connect 30 0 12 2;
#X connect 30 0 13 2;
#X connect 30 0 14 2;
#X connect 32 0 33 0;
#X connect 32 0 33 1;
#X connect 32 0 7 0;
#X connect 33 0 8 0;
#X connect 33 1 8 0;
#X connect 34 0 35 0;
#X connect 35 0 33 2;
#X connect 36 0 27 0;
#X connect 37 0 36 1;
#X connect 37 0 50 0;
#X connect 38 0 43 0;
#X connect 39 0 7 1;
#X connect 40 0 41 0;
#X connect 41 0 39 1;
#X connect 42 0 49 0;
#X connect 42 1 40 0;
#X connect 42 2 39 2;
#X connect 43 0 42 0;
#X connect 44 0 10 1;
#X connect 44 1 9 1;
#X connect 44 2 11 1;
#X connect 44 3 12 1;
#X connect 44 4 13 1;
#X connect 44 5 14 1;
#X connect 45 0 38 0;
#X connect 45 0 52 0;
#X connect 46 0 44 0;
#X connect 47 0 44 0;
#X connect 48 0 39 0;
#X connect 49 0 48 0;
#X connect 52 0 37 0;
#X connect 53 0 54 0;
#X connect 54 0 30 0;
