#N canvas 523 22 818 463 10;
#X obj 14 63 art-lattice 23;
#X obj 13 10 adc~ 5 6 7 8;
#X obj 168 63 art-lattice 23;
#X obj 323 63 art-lattice 23;
#X obj 476 63 art-lattice 23;
#X obj 16 307 *~;
#X obj 44 426 dac~;
#X obj 15 332 throw~ \$0-toms;
#X obj 43 395 catch~ \$0-toms;
#X obj 173 305 *~;
#X obj 172 330 throw~ \$0-toms;
#X obj 332 301 *~;
#X obj 331 326 throw~ \$0-toms;
#X obj 483 297 *~;
#X obj 482 322 throw~ \$0-toms;
#X obj 27 136 art-folddistortion;
#X obj 186 138 art-folddistortion;
#X obj 338 138 art-folddistortion;
#X obj 492 139 art-folddistortion;
#X connect 0 0 5 0;
#X connect 0 0 15 0;
#X connect 1 0 0 0;
#X connect 1 1 2 0;
#X connect 1 2 3 0;
#X connect 1 3 4 0;
#X connect 2 0 16 0;
#X connect 3 0 17 0;
#X connect 4 0 18 0;
#X connect 5 0 7 0;
#X connect 8 0 6 0;
#X connect 8 0 6 1;
#X connect 9 0 10 0;
#X connect 11 0 12 0;
#X connect 13 0 14 0;
