#N canvas 167 22 1170 744 10;
#X obj 20 577 dac~;
#X obj 15 375 catch~ drum;
#X obj 12 345 throw~ drum;
#X obj 12 254 dsp.gain 110;
#X obj 67 25 adc~ 1;
#X obj 447 252 adc~ 3 4 5 6 7 8;
#X obj 136 34 dsp.granulator;
#X obj 317 543 throw~ drum;
#X obj 397 321 bellpad 400;
#X obj 321 320 bellpad 300;
#X obj 503 312 bellpad 500;
#X obj 594 315 bellpad 600;
#X obj 672 313 bellpad 700;
#X obj 789 316 bellpad 1000;
#X obj 96 209 svf~ 200 0.6;
#X floatatom 404 156 5 0 0 0 - - -;
#X obj 99 180 svf~ 1672 0.7;
#X obj 373 31 r arduino-a0;
#X obj 578 23 r arduino-a1;
#X obj 318 354 dsp.gain 86;
#X obj 408 352 dsp.gain 86;
#X obj 504 347 dsp.gain 86;
#X obj 602 348 dsp.gain 86;
#X obj 705 350 dsp.gain 86;
#X obj 798 348 dsp.gain 86;
#X obj 823 238 throw~ drum;
#X obj 12 320 compressor~ 1.7;
#X text 439 155 Compression level;
#X floatatom 486 133 5 0 0 0 - - -;
#X text 525 132 resonance;
#X obj 317 425 compressor~ 1;
#X obj 317 458 dsp.freezer;
#X obj 577 73 > 0.99;
#X obj 578 95 change;
#X obj 649 136 clip 0 100;
#X obj 894 -5 maxlib/scale 0.18 0.7 0 1;
#X obj 894 17 clip 0 1;
#N canvas 0 22 450 300 pitches 0;
#X obj 59 29 inlet;
#X obj 59 53 unpack 0 0 0 0 0 0;
#X obj 59 126 outlet;
#X obj 59 103 mtof;
#X obj 105 125 outlet;
#X obj 105 102 mtof;
#X obj 153 123 outlet;
#X obj 153 100 mtof;
#X obj 201 122 outlet;
#X obj 201 99 mtof;
#X obj 250 121 outlet;
#X obj 250 98 mtof;
#X obj 298 121 outlet;
#X obj 298 98 mtof;
#X connect 0 0 1 0;
#X connect 1 0 3 0;
#X connect 1 1 5 0;
#X connect 1 2 7 0;
#X connect 1 3 9 0;
#X connect 1 4 11 0;
#X connect 1 5 13 0;
#X connect 3 0 2 0;
#X connect 5 0 4 0;
#X connect 7 0 6 0;
#X connect 9 0 8 0;
#X connect 11 0 10 0;
#X connect 13 0 12 0;
#X restore 690 -14 pd pitches ----------;
#X floatatom 894 -37 5 0 0 0 - - -;
#X msg 545 -68 94 92 87 85 82 80;
#X msg 701 -41 95 93 91 86 85 83;
#X floatatom 641 164 5 0 0 0 - - -;
#X floatatom 703 43 5 0 0 0 - - -;
#X obj 650 113 maxlib/scale 0.18 0.7 100 1.06;
#X obj 372 57 maxlib/scale 0.1 1 0.8 0.98;
#X obj 373 81 clip 0 0.98;
#X obj 158 -9 adc~ 2;
#X obj 129 311 dsp.distortion.fold;
#X obj 101 547 writesf~ 2;
#X msg 133 487 open daeleker_drums.wav;
#X msg 146 509 start;
#X msg 193 515 stop;
#X obj 323 615 readsf~ 2;
#X msg 466 564 open /Users/adamtindale/Desktop/soundasaurus/daleker_mix2.wav
;
#X obj 12 207 svf~ 60 0.9;
#X obj 15 398 dsp.gain 95;
#X obj 113 392 dsp.gain 95;
#X obj 946 302 pack 3 2000 1;
#X obj 895 37 t b f;
#X obj 823 172 dsp.gain 100;
#X msg 454 498 open /Users/adamtindale/Desktop/soundasaurus/shrouder_mix1.wav
;
#X msg 147 459 open shrouder_drums.wav;
#X connect 1 0 47 0;
#X connect 1 0 55 0;
#X connect 3 0 26 0;
#X connect 4 0 14 0;
#X connect 4 0 16 0;
#X connect 4 0 54 0;
#X connect 5 0 9 0;
#X connect 5 1 8 0;
#X connect 5 2 10 0;
#X connect 5 3 11 0;
#X connect 5 4 12 0;
#X connect 5 5 13 0;
#X connect 6 0 59 0;
#X connect 8 0 20 0;
#X connect 9 0 19 0;
#X connect 10 0 21 0;
#X connect 11 0 22 0;
#X connect 12 0 23 0;
#X connect 13 0 24 0;
#X connect 14 0 3 0;
#X connect 15 0 30 1;
#X connect 16 0 3 0;
#X connect 17 0 44 0;
#X connect 18 0 32 0;
#X connect 18 0 35 0;
#X connect 18 0 42 0;
#X connect 18 0 43 0;
#X connect 19 0 30 0;
#X connect 20 0 30 0;
#X connect 21 0 30 0;
#X connect 22 0 30 0;
#X connect 23 0 30 0;
#X connect 24 0 30 0;
#X connect 26 0 2 0;
#X connect 28 0 9 2;
#X connect 28 0 8 2;
#X connect 28 0 10 2;
#X connect 28 0 11 2;
#X connect 28 0 12 2;
#X connect 28 0 13 2;
#X connect 30 0 31 0;
#X connect 30 0 31 1;
#X connect 31 0 7 0;
#X connect 31 1 7 0;
#X connect 32 0 33 0;
#X connect 34 0 41 0;
#X connect 35 0 36 0;
#X connect 36 0 58 0;
#X connect 37 0 9 1;
#X connect 37 1 8 1;
#X connect 37 2 10 1;
#X connect 37 3 11 1;
#X connect 37 4 12 1;
#X connect 37 5 13 1;
#X connect 38 0 35 0;
#X connect 38 0 43 0;
#X connect 39 0 37 0;
#X connect 40 0 37 0;
#X connect 43 0 34 0;
#X connect 44 0 45 0;
#X connect 45 0 28 0;
#X connect 46 0 6 0;
#X connect 47 0 56 0;
#X connect 49 0 48 0;
#X connect 50 0 48 0;
#X connect 50 0 52 0;
#X connect 51 0 48 0;
#X connect 51 0 52 0;
#X connect 52 0 0 0;
#X connect 52 1 0 1;
#X connect 53 0 52 0;
#X connect 54 0 3 0;
#X connect 55 0 0 0;
#X connect 55 0 0 1;
#X connect 55 0 48 0;
#X connect 55 0 48 1;
#X connect 56 0 48 0;
#X connect 56 0 0 0;
#X connect 56 0 0 1;
#X connect 57 0 6 1;
#X connect 58 0 57 0;
#X connect 58 1 57 2;
#X connect 59 0 25 0;
#X connect 60 0 52 0;
#X connect 61 0 48 0;
