#N canvas 371 87 450 300 10;
#X obj 278 266 sfwrite~;
#X obj 105 124 bng 15 250 50 0 empty empty empty 17 7 0 10 -262144
-1 -1;
#X text 126 123 soundfile;
#X obj 105 143 tgl 15 0 empty empty empty 17 7 0 10 -262144 -1 -1 0
1;
#X text 123 142 stop/start;
#X obj 284 179 prepend open;
#X obj 286 150 tosymbol;
#X obj 122 193 route 0 1;
#X msg 185 226 start;
#X msg 122 225 stop;
#X obj 277 241 inlet~;
#X obj 288 118 savepanel;
#X connect 1 0 11 0;
#X connect 3 0 7 0;
#X connect 3 0 0 0;
#X connect 5 0 0 0;
#X connect 6 0 5 0;
#X connect 7 0 9 0;
#X connect 7 1 8 0;
#X connect 10 0 0 0;
#X connect 11 0 6 0;
#X coords 0 -1 1 1 85 60 1 100 100;
