#N canvas 533 22 508 610 10;
#X declare -lib moonlib;
#X obj 209 -94 import moonlib;
#X obj 33 91 gamme 90 40 0 0 0 0 0 0 0 0 0 0 0 0;
#X obj 124 91 gamme 90 40 0 0 0 0 0 0 0 0 0 0 0 0;
#X obj 215 91 gamme 90 40 0 0 0 0 0 0 0 0 0 0 0 0;
#X obj 306 91 gamme 90 40 0 0 0 0 0 0 0 0 0 0 0 0;
#X obj 33 143 unpack;
#X obj 33 194 pack;
#X obj 140 146 unpack;
#X obj 140 173 + 48;
#X obj 140 197 pack;
#X obj 233 146 unpack;
#X obj 233 197 pack;
#X obj 326 142 unpack;
#X obj 326 193 pack;
#X obj 123 382 outlet;
#X obj 33 170 + 36;
#X obj 233 173 + 60;
#X obj 326 169 + 72;
#X obj 156 321 makenote 1 500;
#X obj 156 342 pack;
#X obj 38 46 prepend set;
#X msg 235 263 1;
#X msg 234 286 2;
#X text 266 262 to not makenote;
#X text 271 288 to makenote;
#X obj 123 293 gate 2;
#X obj 236 243 loadbang;
#X obj 38 -41 div 12;
#X obj 38 -21 + 0;
#X obj 39 17 route 3 4 5 6;
#X msg 39 -86 \$1 \$1 \$2;
#X obj 38 -64 unpack 0 0 0;
#X obj 39 -1 pack 0 0 0;
#X obj 112 48 prepend set;
#X obj 279 45 prepend set;
#X obj 193 48 prepend set;
#X obj 172 365 send \$0-tokeyboard;
#X obj 38 -114 r \$0-tokeyboard;
#X obj 239 220 inlet;
#X text 279 222 left inlet sets mode;
#X text 261 339 right inlet sets makenote time;
#X obj 302 320 inlet;
#X connect 1 2 5 0;
#X connect 2 2 7 0;
#X connect 3 2 10 0;
#X connect 4 2 12 0;
#X connect 5 0 15 0;
#X connect 5 1 6 1;
#X connect 6 0 25 1;
#X connect 7 0 8 0;
#X connect 7 1 9 1;
#X connect 8 0 9 0;
#X connect 9 0 25 1;
#X connect 10 0 16 0;
#X connect 10 1 11 1;
#X connect 11 0 25 1;
#X connect 12 0 17 0;
#X connect 12 1 13 1;
#X connect 13 0 25 1;
#X connect 15 0 6 0;
#X connect 16 0 11 0;
#X connect 17 0 13 0;
#X connect 18 0 19 0;
#X connect 18 1 19 1;
#X connect 19 0 14 0;
#X connect 19 0 36 0;
#X connect 20 0 1 0;
#X connect 21 0 25 0;
#X connect 22 0 25 0;
#X connect 25 0 14 0;
#X connect 25 1 18 0;
#X connect 26 0 21 0;
#X connect 27 0 28 0;
#X connect 28 0 32 0;
#X connect 29 0 20 0;
#X connect 29 1 33 0;
#X connect 29 2 35 0;
#X connect 29 3 34 0;
#X connect 30 0 31 0;
#X connect 31 0 27 0;
#X connect 31 1 32 1;
#X connect 31 2 32 2;
#X connect 32 0 29 0;
#X connect 33 0 2 0;
#X connect 34 0 4 0;
#X connect 35 0 3 0;
#X connect 37 0 30 0;
#X connect 38 0 25 0;
#X connect 41 0 18 2;
#X coords 0 -1 1 1 369 45 2 30 88;
