#N canvas 10 22 632 458 10;
#X declare -lib OSCx;
#X msg 23 37 ephemere \$1;
#X obj 23 18 tgl 15 0 empty empty empty 17 7 0 10 -262144 -1 -1 0 1
;
#X obj 103 17 tgl 15 0 empty empty empty 17 7 0 10 -262144 -1 -1 0
1;
#X msg 104 36 capture \$1;
#X obj 176 17 tgl 15 0 empty empty empty 17 7 0 10 -262144 -1 -1 0
1;
#X msg 177 36 grid \$1;
#X msg 293 36 nbr \$1;
#X floatatom 293 14 5 0 0 0 - - -;
#X obj 177 268 prepend send;
#X obj 233 290 import OSCx;
#X obj 177 289 sendOSC;
#X msg 25 253 connect someIP 8000;
#X obj 233 17 tgl 15 0 empty empty empty 17 7 0 10 -262144 -1 -1 0
1;
#X msg 234 36 label \$1;
#X obj 354 132 expr ($f1*65536) + ($f2 * 256) + $f3;
#X msg 354 157 color \$1;
#X obj 358 11 hsl 128 15 0 127 0 0 empty empty empty -2 -8 0 10 -258113
-1 -1 11900 1;
#X obj 359 47 hsl 128 15 0 127 0 0 empty empty empty -2 -8 0 10 -4160
-1 -1 3800 1;
#X obj 358 29 hsl 128 15 0 127 0 0 empty empty empty -2 -8 0 10 -4034
-1 -1 10000 1;
#X msg 354 203 color 7.82442e+06;
#X obj 354 181 prepend set;
#X obj 370 90 t b f;
#X obj 407 91 t b f;
#X connect 1 0 0 0;
#X connect 2 0 3 0;
#X connect 4 0 5 0;
#X connect 7 0 6 0;
#X connect 8 0 10 0;
#X connect 11 0 10 0;
#X connect 12 0 13 0;
#X connect 14 0 15 0;
#X connect 15 0 20 0;
#X connect 16 0 14 0;
#X connect 17 0 22 0;
#X connect 18 0 21 0;
#X connect 20 0 19 0;
#X connect 21 0 14 0;
#X connect 21 1 14 1;
#X connect 22 0 14 0;
#X connect 22 1 14 2;
