#N canvas 604 290 420 252 10;
#X obj 29 52 outlet~;
#X obj 115 81 route 0;
#X obj 115 58 \$1;
#X obj 115 128 print ERROR;
#X msg 115 105 abstraction needs argument;
#X obj 29 29 catch~ \$1;
#X obj 115 35 loadbang;
#X connect 1 0 4 0;
#X connect 2 0 1 0;
#X connect 4 0 3 0;
#X connect 5 0 0 0;
#X connect 6 0 2 0;
