#N canvas 590 22 450 300 10;
#X obj 33 82 inlet~;
#X obj 111 136 hsl 128 15 0 127 0 0 empty empty empty -2 -8 0 10 -262144
-1 -1 0 1;
#X obj 107 184 dbtorms;
#X msg 107 204 \$1 10;
#X obj 106 228 line~;
#X obj 33 108 *~;
#X obj 81 81 prepend set;
#X obj 83 29 route 0;
#X obj 152 30 print ERROR;
#X msg 153 4 abstraction needs argument;
#X obj 33 135 throw~;
#X obj 83 -14 loadbang;
#X obj 83 6 symbol \$1;
#X obj 47 -13 bng 15 250 50 0 empty empty empty 17 7 0 10 -262144 -1
-1;
#X obj 197 65 print;
#X obj 82 55 fromsymbol;
#X connect 0 0 5 0;
#X connect 1 0 2 0;
#X connect 2 0 3 0;
#X connect 3 0 4 0;
#X connect 4 0 5 1;
#X connect 5 0 10 0;
#X connect 6 0 10 0;
#X connect 7 0 9 0;
#X connect 7 1 15 0;
#X connect 7 1 14 0;
#X connect 9 0 8 0;
#X connect 11 0 12 0;
#X connect 12 0 7 0;
#X connect 12 0 14 0;
#X connect 13 0 12 0;
#X connect 15 0 6 0;
#X coords 0 -1 1 1 150 60 1 100 100;
