#N canvas 590 22 450 300 10;
#X obj 33 82 inlet~;
#X obj 111 136 hsl 128 15 0 127 0 0 empty empty empty -2 -8 0 10 -262144
-1 -1 0 1;
#X obj 107 184 dbtorms;
#X msg 107 204 \$1 10;
#X obj 106 228 line~;
#X obj 33 108 *~;
#X obj 33 135 throw~ \$1;
#X connect 0 0 5 0;
#X connect 1 0 2 0;
#X connect 2 0 3 0;
#X connect 3 0 4 0;
#X connect 4 0 5 1;
#X connect 5 0 6 0;
#X coords 0 -1 1 1 150 60 1 100 100;
