#N canvas 196 155 444 350 10;
#X obj 184 39 noise~;
#X obj 148 278 *~;
#X obj 164 195 *~ 0.8;
#X obj 149 252 ead~ 1 800;
#X obj 11 150 *~ 0.1;
#X obj 80 120 bp~ 1300 10;
#X obj 240 120 bp~ 700 10;
#X obj 163 120 bp~ 2500 4;
#X obj 11 120 lop~ 8000;
#X obj 183 70 hip~ 300;
#X obj 147 301 *~ 0.7;
#X obj 34 43 bng 15 80 50 0 \$0-clap1 empty clap1 0 -6 1 8 -260818
-1 -1;
#X obj 147 326 dac~;
#X obj 149 228 r \$0-clap1;
#X text 250 141 bands quite resonant;
#X text 5 226 trigger from bang ->;
#X text 235 253 <- envelope;
#X text 321 119 <- filters;
#X text 252 71 <- knock the bottom off;
#X text 242 40 <- some noise;
#X text 168 4 Handclap 1;
#X connect 0 0 8 0;
#X connect 0 0 9 0;
#X connect 1 0 10 0;
#X connect 2 0 1 1;
#X connect 3 0 1 0;
#X connect 4 0 2 0;
#X connect 5 0 2 0;
#X connect 6 0 2 0;
#X connect 7 0 2 0;
#X connect 8 0 4 0;
#X connect 9 0 5 0;
#X connect 9 0 6 0;
#X connect 9 0 7 0;
#X connect 10 0 12 0;
#X connect 10 0 12 1;
#X connect 13 0 3 0;
