#N canvas 93 22 892 790 10;
#X declare -lib bsaylor;
#X obj 42 349 dsp.convolution;
#X obj 43 440 dac~;
#X obj 44 203 synth.burst;
#X obj 43 296 *~;
#X obj 69 281 osc~ 875;
#X obj 42 326 reson~ 10 1000 100;
#X text 159 20 looping sound files;
#X text 105 21 todo;
#X text 160 41 tunable filter banks;
#X text 160 62 probabilistic pitch sequencer;
#X text 159 84 granulator;
#X obj 171 350 dsp.freezer;
#X connect 0 0 1 0;
#X connect 0 0 1 1;
#X connect 2 0 3 0;
#X connect 3 0 5 0;
#X connect 4 0 3 1;
#X connect 5 0 0 0;
#X connect 11 0 1 0;
#X connect 11 1 1 1;
