#N canvas 102 102 991 613 12;
#X declare -lib mrpeach;
#X obj 69 507 dac~;
#X msg 73 61 open /Users/adamtindale/bellphase1.wav;
#X obj 75 104 readsf~;
#X msg 17 63 1;
#X msg 2 95 0;
#X obj 70 23 t b b;
#X obj 99 301 mixer.4;
#X msg 625 260 400 \, 4 10;
#X obj 625 288 line~;
#X obj 636 364 *~;
#X obj 686 319 ead~ 5 400;
#X obj 623 226 t b b;
#X obj 622 195 bng 15 250 50 0 empty empty empty 17 7 0 10 -262144
-1 -1;
#X obj 626 318 phasor~;
#X msg 777 261 400 \, 4 10;
#X obj 777 289 line~;
#X obj 788 365 *~;
#X obj 838 320 ead~ 5 400;
#X obj 775 227 t b b;
#X obj 778 319 osc~;
#X obj 774 191 bng 15 250 50 0 empty empty empty 17 7 0 10 -262144
-1 -1;
#X obj 671 103 metro 250;
#X obj 670 84 tgl 15 0 empty empty empty 17 7 0 10 -262144 -1 -1 0
1;
#X obj 671 126 tgl 15 0 empty empty empty 17 7 0 10 -262144 -1 -1 1
1;
#X obj 768 143 select 0 1;
#X obj 506 170 osc~ 700;
#X obj 517 215 ead~ 30 100;
#X obj 502 239 *~;
#X floatatom 733 68 5 0 0 0 - - -;
#X obj 901 235 ead~ 30 100;
#X obj 886 259 *~;
#X obj 626 417 mixer.4;
#X obj 890 190 osc~ 2400;
#X floatatom 503 143 5 0 0 0 - - -;
#X floatatom 892 160 5 0 0 0 - - -;
#X obj 460 86 ead~ 1000 1000;
#X obj 406 126 *~;
#X obj 461 66 bng 15 250 50 0 empty empty empty 17 7 0 10 -262144 -1
-1;
#X obj 365 87 phasor~ 1000;
#X obj 75 162 dsp.distortion.swappermut;
#X obj 627 523 dsp.distortion.swappermut;
#X obj 68 414 dsp.gain~ 100;
#X obj 170 11 openpanel;
#X obj 268 31 bng 15 250 50 0 empty empty empty 17 7 0 10 -262144 -1
-1;
#X obj 169 35 prepend open;
#X connect 1 0 2 0;
#X connect 2 0 39 0;
#X connect 2 1 5 0;
#X connect 3 0 2 0;
#X connect 4 0 2 0;
#X connect 5 0 3 0;
#X connect 5 1 1 0;
#X connect 6 0 41 0;
#X connect 7 0 8 0;
#X connect 8 0 13 0;
#X connect 9 0 31 0;
#X connect 10 0 9 1;
#X connect 11 0 7 0;
#X connect 11 1 10 0;
#X connect 12 0 11 0;
#X connect 12 0 26 0;
#X connect 13 0 9 0;
#X connect 14 0 15 0;
#X connect 15 0 19 0;
#X connect 16 0 31 2;
#X connect 17 0 16 1;
#X connect 18 0 14 0;
#X connect 18 1 17 0;
#X connect 19 0 16 0;
#X connect 20 0 18 0;
#X connect 20 0 29 0;
#X connect 21 0 23 0;
#X connect 22 0 21 0;
#X connect 23 0 24 0;
#X connect 24 0 12 0;
#X connect 24 1 20 0;
#X connect 25 0 27 0;
#X connect 26 0 27 1;
#X connect 27 0 31 1;
#X connect 28 0 21 1;
#X connect 29 0 30 1;
#X connect 30 0 31 3;
#X connect 31 0 6 3;
#X connect 31 0 40 0;
#X connect 32 0 30 0;
#X connect 33 0 25 0;
#X connect 34 0 32 0;
#X connect 35 0 36 1;
#X connect 36 0 6 2;
#X connect 37 0 35 0;
#X connect 38 0 36 0;
#X connect 39 0 6 0;
#X connect 40 0 6 1;
#X connect 41 0 0 0;
#X connect 41 0 0 1;
#X connect 42 0 44 0;
#X connect 43 0 42 0;
#X connect 44 0 2 0;
