#N canvas 333 178 600 401 10;
#X obj 126 233 dac~;
#X obj 47 179 catch~ mysig;
#X floatatom 328 170 5 0 0 2 delay_time - -;
#N canvas 64 97 649 473 delay 0;
#X obj 103 196 +~;
#X obj 52 93 *~;
#X obj 259 219 +~;
#X obj 407 243 +~;
#X obj 366 296 *~ 0.25;
#X obj 366 325 outlet~;
#X obj 20 49 inlet~;
#X obj 68 49 inlet;
#X obj 336 38 inlet;
#X obj 336 82 * 2;
#X obj 365 82 * 4;
#X obj 423 85 * 8;
#X obj 119 141 delwrite~ del4 1000;
#X obj 277 139 delwrite~ del5 1000;
#X obj 420 139 delwrite~ del6 1000;
#X obj 119 165 delread~ del4 10;
#X obj 275 163 delread~ del5 20;
#X obj 423 163 delread~ del6 30;
#X obj 208 49 inlet;
#X obj 119 89 *~;
#X obj 407 272 s~ feedback;
#X obj 119 50 r~ feedback;
#X text 8 16 audio in;
#X text 69 23 gain;
#X text 201 25 feedback;
#X text 329 18 delay time;
#X obj 208 72 * 0.01;
#X connect 0 0 2 0;
#X connect 1 0 0 0;
#X connect 1 0 12 0;
#X connect 1 0 13 0;
#X connect 1 0 14 0;
#X connect 2 0 3 0;
#X connect 3 0 4 0;
#X connect 3 0 20 0;
#X connect 4 0 5 0;
#X connect 6 0 1 0;
#X connect 7 0 1 1;
#X connect 8 0 9 0;
#X connect 8 0 10 0;
#X connect 8 0 11 0;
#X connect 9 0 15 0;
#X connect 10 0 16 0;
#X connect 11 0 17 0;
#X connect 15 0 0 1;
#X connect 16 0 2 1;
#X connect 17 0 3 1;
#X connect 18 0 26 0;
#X connect 19 0 12 0;
#X connect 19 0 13 0;
#X connect 19 0 14 0;
#X connect 21 0 19 0;
#X connect 26 0 19 1;
#X restore 243 183 pd delay;
#X obj 260 104 tgl 30 0 empty empty empty 0 -6 0 8 -258699 -1 -1 1
1;
#X floatatom 277 153 5 0 35 2 feedback - -;
#N canvas 235 101 213 226 echo 0;
#X obj 21 129 +~;
#X obj 21 40 *~;
#X obj 21 193 outlet~;
#X obj 21 7 inlet~;
#X obj 73 7 inlet;
#X obj 124 6 inlet;
#X obj 21 162 *~ 0.5;
#X obj 37 104 delread~ del20 10;
#X obj 37 69 delwrite~ del20 2000;
#X connect 0 0 6 0;
#X connect 1 0 0 0;
#X connect 1 0 8 0;
#X connect 3 0 1 0;
#X connect 4 0 1 1;
#X connect 5 0 7 0;
#X connect 6 0 2 0;
#X connect 7 0 0 1;
#X restore 131 178 pd echo;
#X floatatom 175 157 5 0 0 2 delay_time - -;
#X obj 150 107 tgl 30 0 empty empty empty 0 -6 0 8 -258699 -1 -1 1
1;
#X obj 26 -15 readsf~;
#X msg 59 -58 1;
#N canvas 0 22 450 300 effect1 0;
#X obj 91 43 inlet~;
#X obj 235 40 inlet;
#X obj 110 143 amp~;
#X obj 110 104 swap~;
#X obj 171 121 line;
#X msg 171 99 \$1 1000;
#X obj 171 144 *;
#X obj 110 202 throw~ mysig;
#X obj 168 175 * 0.3;
#X connect 0 0 3 0;
#X connect 1 0 5 0;
#X connect 2 0 7 0;
#X connect 3 0 2 0;
#X connect 4 0 6 1;
#X connect 4 0 6 0;
#X connect 5 0 4 0;
#X connect 6 0 8 0;
#X connect 8 0 2 1;
#X restore 26 67 pd effect1;
#N canvas 80 174 450 300 effect2 0;
#X obj 135 38 inlet~;
#X obj 235 40 inlet;
#X obj 156 164 amp~;
#X obj 217 142 line;
#X msg 217 120 \$1 1000;
#X obj 217 165 *;
#X obj 156 223 throw~ mysig;
#X obj 156 125 permut~;
#X obj 215 196 * 1;
#X connect 0 0 7 0;
#X connect 1 0 4 0;
#X connect 2 0 6 0;
#X connect 3 0 5 1;
#X connect 3 0 5 0;
#X connect 4 0 3 0;
#X connect 5 0 8 0;
#X connect 7 0 2 0;
#X connect 8 0 2 1;
#X restore 103 66 pd effect2;
#N canvas 80 174 678 580 effect3 0;
#X obj 91 43 inlet~;
#X obj 235 40 inlet;
#X obj 132 215 amp~;
#X obj 215 186 line;
#X msg 215 164 \$1 1000;
#X obj 215 209 *;
#X obj 133 490 throw~ mysig;
#X obj 127 185 svf~ 400 0.97;
#X obj 213 230 * 1;
#X floatatom 170 147 5 0 0 0 - - -;
#X obj 139 91 key;
#X obj 138 117 mtof;
#X msg 135 420 coef 1 \$1;
#X obj 135 388 dbtorms;
#X obj 214 389 dbtorms;
#X obj 293 389 dbtorms;
#X obj 372 388 dbtorms;
#X msg 214 421 coef 2 \$1;
#X msg 293 421 coef 3 \$1;
#X msg 372 421 coef 4 \$1;
#X obj 135 452 cheby~ 4;
#X floatatom 246 229 5 0 0 0 - - -;
#X obj 161 252 vsl 15 128 0 127 0 0 empty empty empty 0 -9 0 10 -262144
-1 -1 9900 1;
#X obj 219 253 vsl 15 128 0 127 0 0 empty empty empty 0 -9 0 10 -262144
-1 -1 7400 1;
#X obj 296 250 vsl 15 128 0 127 0 0 empty empty empty 0 -9 0 10 -262144
-1 -1 11000 1;
#X obj 374 246 vsl 15 128 0 127 0 0 empty empty empty 0 -9 0 10 -262144
-1 -1 0 1;
#X connect 0 0 7 0;
#X connect 1 0 4 0;
#X connect 2 0 20 0;
#X connect 3 0 5 1;
#X connect 3 0 5 0;
#X connect 4 0 3 0;
#X connect 5 0 8 0;
#X connect 7 1 2 0;
#X connect 8 0 2 1;
#X connect 9 0 7 2;
#X connect 10 0 11 0;
#X connect 11 0 7 1;
#X connect 12 0 20 0;
#X connect 13 0 12 0;
#X connect 14 0 17 0;
#X connect 15 0 18 0;
#X connect 16 0 19 0;
#X connect 17 0 20 0;
#X connect 18 0 20 0;
#X connect 19 0 20 0;
#X connect 20 0 6 0;
#X connect 21 0 8 1;
#X connect 22 0 13 0;
#X connect 23 0 14 0;
#X connect 24 0 15 0;
#X connect 25 0 16 0;
#X restore 180 66 pd effect3;
#N canvas 80 174 1133 581 effect4 0;
#X obj 91 43 inlet~;
#X obj 235 40 inlet;
#X obj 363 297 env~;
#X floatatom 363 321 5 0 0 0 - - -;
#X obj 366 343 hsl 128 15 0 127 0 0 empty empty empty -2 -8 0 10 -262144
-1 -1 0 1;
#X floatatom 127 158 5 0 0 0 - - -;
#X msg 369 192 linear 32 1000 1005;
#X msg 369 213 linear 32 100 2015;
#X msg 370 145 linear 8 75 100;
#X msg 370 122 linear 32 50 2175;
#X obj 103 240 fdn~ 64 4000;
#X msg 362 244 linear 64 5 4000;
#X obj 363 385 edge;
#X obj 363 363 > 50;
#X obj 363 409 counter 0 1 6;
#X obj 220 94 select 1 2 3 4 5 6;
#X obj 99 201 dist~ 1.2;
#X obj 112 342 throw~ mysig;
#X obj 199 208 line;
#X msg 199 186 \$1 1000;
#X obj 199 231 *;
#X obj 197 262 * 1;
#X obj 112 276 amp~;
#X floatatom 367 466 5 0 0 0 - - -;
#X msg 371 169 linear 32 100 190;
#X obj 259 434 switch 2;
#X msg 276 391 2;
#X msg 246 391 1;
#X floatatom 255 492 5 0 0 0 - - -;
#X floatatom 317 395 5 0 0 0 - - -;
#X connect 0 0 16 0;
#X connect 1 0 19 0;
#X connect 2 0 3 0;
#X connect 3 0 4 0;
#X connect 4 0 13 0;
#X connect 5 0 16 1;
#X connect 6 0 10 0;
#X connect 7 0 10 0;
#X connect 8 0 10 0;
#X connect 9 0 10 0;
#X connect 10 0 22 0;
#X connect 10 1 22 0;
#X connect 11 0 10 0;
#X connect 12 0 14 0;
#X connect 13 0 12 0;
#X connect 14 0 23 0;
#X connect 14 0 25 2;
#X connect 15 0 9 0;
#X connect 15 1 8 0;
#X connect 15 2 24 0;
#X connect 15 3 6 0;
#X connect 15 4 7 0;
#X connect 15 5 11 0;
#X connect 16 0 10 0;
#X connect 18 0 20 1;
#X connect 18 0 20 0;
#X connect 19 0 18 0;
#X connect 20 0 21 0;
#X connect 21 0 22 1;
#X connect 22 0 17 0;
#X connect 24 0 10 0;
#X connect 25 0 15 0;
#X connect 25 0 28 0;
#X connect 26 0 25 0;
#X connect 27 0 25 0;
#X connect 29 0 25 1;
#X restore 253 67 pd effect4;
#N canvas 80 174 612 371 effect5 0;
#X obj 91 43 inlet~;
#X obj 207 42 inlet;
#X obj 99 184 amp~;
#X obj 163 155 line;
#X msg 163 133 \$1 1000;
#X obj 163 178 *;
#X obj 99 234 throw~ mysig;
#X obj 99 132 freeverb~;
#X obj 161 199 * 12;
#X obj 108 90 r tofreeverb;
#X msg 391 120 roomsize \$1;
#X msg 391 142 damping \$1;
#X msg 391 164 width \$1;
#X msg 391 186 wet \$1;
#X msg 391 208 dry \$1;
#X obj 457 200 s tofreeverb;
#X obj 257 121 hsl 128 15 0 1 0 0 empty empty empty -2 -8 0 10 -262144
-1 -1 7200 1;
#X obj 256 139 hsl 128 15 0 1 0 0 empty empty empty -2 -8 0 10 -262144
-1 -1 5000 1;
#X obj 252 164 hsl 128 15 0 1 0 0 empty empty empty -2 -8 0 10 -262144
-1 -1 3700 1;
#X obj 253 186 hsl 128 15 0 1 0 0 empty empty empty -2 -8 0 10 -262144
-1 -1 10400 1;
#X obj 254 209 hsl 128 15 0 1 0 0 empty empty empty -2 -8 0 10 -262144
-1 -1 0 1;
#X connect 0 0 7 0;
#X connect 1 0 4 0;
#X connect 2 0 6 0;
#X connect 3 0 5 1;
#X connect 3 0 5 0;
#X connect 4 0 3 0;
#X connect 5 0 8 0;
#X connect 7 0 2 0;
#X connect 7 1 2 0;
#X connect 8 0 2 1;
#X connect 9 0 7 0;
#X connect 10 0 15 0;
#X connect 11 0 15 0;
#X connect 12 0 15 0;
#X connect 13 0 15 0;
#X connect 14 0 15 0;
#X connect 16 0 10 0;
#X connect 17 0 11 0;
#X connect 18 0 12 0;
#X connect 19 0 13 0;
#X connect 20 0 14 0;
#X restore 325 66 pd effect5;
#X obj 56 26 tgl 30 0 empty empty empty 0 -6 0 8 -258699 -1 -1 0 1
;
#X obj 135 24 tgl 30 0 empty empty empty 0 -6 0 8 -258699 -1 -1 1 1
;
#X obj 211 23 tgl 30 0 empty empty empty 0 -6 0 8 -258699 -1 -1 1 1
;
#X obj 282 22 tgl 30 0 empty empty empty 0 -6 0 8 -258699 -1 -1 0 1
;
#X obj 360 23 tgl 30 0 empty empty empty 0 -6 0 8 -258699 -1 -1 1 1
;
#X text 408 31 turn on and off effects;
#X text 430 140 global effects;
#X text 113 -42 load and play a sound file;
#X msg 28 -79 open 315file.aif;
#X connect 1 0 6 0;
#X connect 1 0 3 0;
#X connect 1 0 0 0;
#X connect 1 0 0 1;
#X connect 2 0 3 3;
#X connect 3 0 0 0;
#X connect 3 0 0 1;
#X connect 4 0 3 1;
#X connect 5 0 3 2;
#X connect 6 0 0 0;
#X connect 6 0 0 1;
#X connect 7 0 6 2;
#X connect 8 0 6 1;
#X connect 9 0 11 0;
#X connect 9 0 12 0;
#X connect 9 0 13 0;
#X connect 9 0 14 0;
#X connect 9 0 15 0;
#X connect 10 0 9 0;
#X connect 16 0 11 1;
#X connect 18 0 13 1;
#X connect 19 0 14 1;
#X connect 20 0 15 1;
#X connect 24 0 9 0;
