#N canvas 67 22 849 456 10;
#X obj 181 12 grid grid1 200 0 199 200 0 199 1 1 1 4 4 257 156;
#X floatatom 149 209 5 0 0 0 - - -;
#X floatatom 384 209 5 0 0 0 - - -;
#X obj 438 159 MouseState;
#X obj 438 285 tgl 15 0 empty empty empty 0 -6 0 8 -262144 -1 -1 0
1;
#X floatatom 454 266 5 0 0 0 - - -;
#X floatatom 470 240 5 0 0 0 - - -;
#X text 494 269 x;
#X msg 487 60 poll;
#X text 514 241 y;
#X floatatom 486 216 5 0 0 0 - - -;
#X text 536 217 delta x;
#X floatatom 503 187 5 0 0 0 - - -;
#X text 553 188 delta y;
#X text 457 286 button pressed ? (one button of course \, mac you know)
;
#X text 529 60 poll the mouse device;
#X msg 438 36 bang;
#X text 480 36 update current state;
#X msg 487 79 nopoll;
#X text 539 79 come on you guessed it right ...;
#X msg 487 107 zero;
#X text 529 109 set current pos to 0 \, 0 of our coordinate system
;
#X msg 485 132 reset;
#X text 535 132 reset 0 \, 0 to upper left corner;
#X obj 20 315 equal_power_pan~;
#X obj 43 356 dac~;
#X obj 108 216 / 200;
#X obj 20 289 decimate~;
#X floatatom 42 254 5 0 0 0 - - -;
#X floatatom 84 251 5 0 0 0 - - -;
#X obj 18 49 mtof;
#X obj 19 138 line~;
#X msg 18 103 \$1 100;
#X obj 20 164 phasor~;
#X obj 181 230 envgen 200 140 1 0  ;
#X obj 430 330 select 1;
#X obj 20 217 *~;
#X obj 179 382 line~;
#X msg 66 101 \$1 500;
#X obj 20 193 tanh~;
#X connect 0 0 1 0;
#X connect 0 1 2 0;
#X connect 1 0 26 0;
#X connect 2 0 30 0;
#X connect 3 0 4 0;
#X connect 3 1 5 0;
#X connect 3 2 6 0;
#X connect 3 3 10 0;
#X connect 3 4 12 0;
#X connect 4 0 35 0;
#X connect 8 0 3 0;
#X connect 16 0 3 0;
#X connect 18 0 3 0;
#X connect 20 0 3 0;
#X connect 22 0 3 0;
#X connect 24 0 25 0;
#X connect 24 1 25 1;
#X connect 26 0 24 1;
#X connect 26 0 28 0;
#X connect 27 0 24 0;
#X connect 28 0 27 1;
#X connect 29 0 27 2;
#X connect 30 0 32 0;
#X connect 30 0 38 0;
#X connect 31 0 33 0;
#X connect 33 0 39 0;
#X connect 34 0 37 0;
#X connect 35 0 34 0;
#X connect 36 0 27 0;
#X connect 37 0 36 1;
#X connect 38 0 31 0;
#X connect 39 0 36 0;
