#N canvas 638 410 734 435 10;
#X obj 192 37 MouseState;
#X obj 239 114 cartopol;
#X floatatom 232 170 5 0 0 0 - - -;
#X floatatom 294 165 5 0 0 0 - - -;
#X msg 303 60 poll;
#X obj 230 211 / 500;
#X floatatom 228 248 5 0 0 0 - - -;
#X obj 142 356 dac~;
#X obj 146 320 amp~;
#X obj 135 234 sawbuzz~;
#X msg 375 65 nopoll;
#X msg 374 89 0;
#X obj 300 36 bng 15 250 50 0 empty empty empty 17 7 0 10 -262144 -1
-1;
#X text 323 34 start;
#X obj 372 40 bng 15 250 50 0 empty empty empty 17 7 0 10 -262144 -1
-1;
#X text 397 39 stop;
#X connect 0 3 1 1;
#X connect 0 4 1 0;
#X connect 1 0 2 0;
#X connect 1 1 3 0;
#X connect 2 0 5 0;
#X connect 2 0 9 0;
#X connect 4 0 0 0;
#X connect 5 0 6 0;
#X connect 6 0 8 1;
#X connect 8 0 7 0;
#X connect 8 0 7 1;
#X connect 9 0 8 0;
#X connect 10 0 0 0;
#X connect 11 0 8 1;
#X connect 12 0 4 0;
#X connect 14 0 10 0;
#X connect 14 0 11 0;
