#N canvas 690 354 699 384 16;
#X obj -178 46 closebang;
#X obj 82 -75 inlet;
#X obj -182 -91 loadbang;
#X obj 84 166 outlet;
#X obj -182 -64 \$1;
#X obj -181 -41 expr if ($i1 > 0 \, $i1 \, 1);
#X obj 84 140 coll \$2;
#C restore;
#X msg -178 99 write \$1;
#X obj -178 72 symbol \$2;
#X obj 146 -29 inlet;
#X text 140 -76 recall;
#X text 204 -29 input a list and it saves;
#X obj 146 38 i;
#X obj 147 93 prepend;
#X obj 146 0 t b l;
#X connect 0 0 8 0;
#X connect 1 0 6 0;
#X connect 1 0 12 1;
#X connect 2 0 4 0;
#X connect 4 0 5 0;
#X connect 5 0 6 0;
#X connect 6 0 3 0;
#X connect 7 0 6 0;
#X connect 8 0 7 0;
#X connect 9 0 14 0;
#X connect 12 0 13 1;
#X connect 13 0 6 0;
#X connect 14 0 12 0;
#X connect 14 1 13 0;
