#N canvas 447 214 742 364 10;
#X obj 24 15 osc~ 400;
#X obj 24 85 tabwrite~ \$0-sample1;
#X obj 248 36 table \$0-sample1 44100;
#X obj 53 43 bng 15 250 50 0 empty empty empty 17 7 0 10 -262144 -1
-1;
#X obj 205 166 line~;
#X obj 205 219 dac~;
#X obj 205 190 tabread4~ \$0-sample1;
#X text 75 44 bang grabs a sample;
#X obj 21 218 dac~;
#X obj 21 188 tabplay~ \$0-sample1;
#X obj 21 161 bng 15 250 50 0 empty empty empty 17 7 0 10 -262144 -1
-1;
#X text 245 55 sample is 44100 samples long or 1 second at cd quality
;
#X obj 205 117 bng 15 250 50 0 empty empty empty 17 7 0 10 -262144
-1 -1;
#X obj 354 211 soundfiler;
#X obj 355 169 openpanel;
#X obj 355 150 bng 15 250 50 0 empty empty empty 17 7 0 10 -262144
-1 -1;
#X obj 355 189 sprintf read -resize %s \$0-sample1;
#X msg 204 142 0 \, 44100 1000;
#N canvas 0 22 450 300 simpleglitch 0;
#X obj 88 154 metro 40;
#X obj 90 124 tgl 15 0 empty empty empty 17 7 0 10 -262144 -1 -1 0
1;
#X floatatom 133 130 5 0 0 0 - - -;
#X obj 96 206 outlet;
#X connect 0 0 3 0;
#X connect 1 0 0 0;
#X connect 2 0 0 1;
#X restore 21 134 pd simpleglitch;
#X connect 0 0 1 0;
#X connect 3 0 1 0;
#X connect 4 0 6 0;
#X connect 6 0 5 0;
#X connect 6 0 5 1;
#X connect 9 0 8 0;
#X connect 9 0 8 1;
#X connect 10 0 9 0;
#X connect 12 0 17 0;
#X connect 14 0 16 0;
#X connect 15 0 14 0;
#X connect 16 0 13 0;
#X connect 17 0 4 0;
#X connect 18 0 10 0;
