#N canvas 402 22 751 494 10;
#X obj 65 76 tgl 15 0 empty empty empty 0 -6 0 10 -262144 -1 -1 0 1
;
#X obj 80 76 tgl 15 0 empty empty empty 0 -6 0 10 -262144 -1 -1 0 1
;
#X obj 95 76 tgl 15 0 empty empty empty 0 -6 0 10 -262144 -1 -1 0 1
;
#X obj 110 76 tgl 15 0 empty empty empty 0 -6 0 10 -262144 -1 -1 0
1;
#X obj 130 76 tgl 15 0 empty empty empty 0 -6 0 10 -262144 -1 -1 0
1;
#X obj 145 76 tgl 15 0 empty empty empty 0 -6 0 10 -262144 -1 -1 0
1;
#X obj 160 76 tgl 15 0 empty empty empty 0 -6 0 10 -262144 -1 -1 0
1;
#X obj 175 76 tgl 15 0 empty empty empty 0 -6 0 10 -262144 -1 -1 0
1;
#X obj 194 76 tgl 15 0 empty empty empty 0 -6 0 10 -262144 -1 -1 0
1;
#X obj 209 76 tgl 15 0 empty empty empty 0 -6 0 10 -262144 -1 -1 0
1;
#X obj 224 76 tgl 15 0 empty empty empty 0 -6 0 10 -262144 -1 -1 0
1;
#X obj 239 76 tgl 15 0 empty empty empty 0 -6 0 10 -262144 -1 -1 0
1;
#X obj 258 77 tgl 15 0 empty empty empty 0 -6 0 10 -262144 -1 -1 0
1;
#X obj 273 77 tgl 15 0 empty empty empty 0 -6 0 10 -262144 -1 -1 0
1;
#X obj 288 77 tgl 15 0 empty empty empty 0 -6 0 10 -262144 -1 -1 0
1;
#X obj 303 77 tgl 15 0 empty empty empty 0 -6 0 10 -262144 -1 -1 0
1;
#X obj -6 213 coll;
#C restore;
#X obj 24 131 pack f f f f f f f f f f f f f f f f;
#X obj 19 13 unpack 1 2 3 4 5 6 7 8 9 10 11 12 13 14 15 16;
#X obj 24 76 bng 15 250 50 0 empty empty save 17 7 0 10 -262144 -1
-1;
#X obj 24 109 f;
#X obj -5 268 print;
#X msg -7 -48 1;
#X obj 24 160 list prepend 1;
#X floatatom 104 -49 5 0 0 0 - - -;
#X text 142 -48 set which preset to save to;
#X floatatom 118 -22 5 0 0 0 - - -;
#X text 155 -22 recall a preset;
#X text 373 -36 Written by Greg Debicki;
#X text 373 -18 Modified by Adam Tindale;
#X connect 0 0 20 1;
#X connect 1 0 17 1;
#X connect 2 0 17 2;
#X connect 3 0 17 3;
#X connect 4 0 17 4;
#X connect 5 0 17 5;
#X connect 6 0 17 6;
#X connect 7 0 17 7;
#X connect 8 0 17 8;
#X connect 9 0 17 9;
#X connect 10 0 17 10;
#X connect 11 0 17 11;
#X connect 12 0 17 12;
#X connect 13 0 17 13;
#X connect 14 0 17 14;
#X connect 15 0 17 15;
#X connect 16 0 18 0;
#X connect 16 0 21 0;
#X connect 17 0 23 0;
#X connect 18 0 0 0;
#X connect 18 1 1 0;
#X connect 18 2 2 0;
#X connect 18 3 3 0;
#X connect 18 4 4 0;
#X connect 18 5 5 0;
#X connect 18 6 6 0;
#X connect 18 7 7 0;
#X connect 18 8 8 0;
#X connect 18 9 9 0;
#X connect 18 10 10 0;
#X connect 18 11 11 0;
#X connect 18 12 12 0;
#X connect 18 13 13 0;
#X connect 18 14 14 0;
#X connect 18 15 15 0;
#X connect 19 0 20 0;
#X connect 20 0 17 0;
#X connect 22 0 16 0;
#X connect 23 0 16 0;
#X connect 24 0 23 1;
#X connect 26 0 16 0;
#X coords 0 -1 1 1 300 30 1 20 70;
