#N canvas 1 22 895 426 10;
#X obj 200 100 inlet;
#X obj 104 138 hradio 15 1 0 5 empty \$0-hradio empty 0 -8 0 10 -192815
-1 -262144 0;
#X obj 105 162 + 1;
#X obj 200 121 route 1 2 3 4 5 6 7 8 9 10 11 12 13 14 15 16;
#X obj 195 243 outlet;
#X obj 199 153 f;
#X obj 211 174 f;
#X obj 229 152 f;
#X obj 241 173 f;
#X obj 255 151 f;
#X obj 267 172 f;
#X obj 281 151 f;
#X obj 293 172 f;
#X obj 311 150 f;
#X obj 323 171 f;
#X obj 341 149 f;
#X obj 353 170 f;
#X obj 367 148 f;
#X obj 379 169 f;
#X obj 393 148 f;
#X obj 405 169 f;
#X obj 293 53 unpack 0 0 0 0 0 0 0 0 0 0 0 0 0 0 0 0 0 0 0 0 0 0 0
0 0;
#X obj 342 30 print;
#X obj 293 9 inlet;
#X text 237 101 input a number;
#X text 330 8 presets;
#X obj 353 299 l;
#X text 352 326 - preset object for storing sequences;
#X obj 293 30 coll \$1;
#C restore;
#X text 321 283 todo - use list or l for chords or mutliparameter notes
;
#N canvas 546 344 530 328 changehradio 0;
#X msg 40 100 \; \$1-hradio size 15;
#X obj 40 78 \$0;
#X msg 39 192 \; \$2-hradio number \$1;
#X obj 39 172 pack 0 \$0;
#X floatatom 39 153 5 0 0 0 - - -;
#X obj 40 55 bng 15 250 50 0 empty empty empty 17 7 0 10 -262144 -1
-1;
#X obj 245 147 colour.rgb2num;
#X obj 244 220 pack \$0 0;
#X obj 247 169 change;
#X msg 245 246 \; \$1-hradio color \$2;
#X obj 245 194 t b f;
#X obj 246 11 loadbang;
#X obj 246 42 random 256;
#X obj 314 43 random 256;
#X obj 383 45 random 256;
#X connect 1 0 0 0;
#X connect 3 0 2 0;
#X connect 4 0 3 0;
#X connect 5 0 1 0;
#X connect 6 0 8 0;
#X connect 7 0 9 0;
#X connect 8 0 10 0;
#X connect 10 0 7 0;
#X connect 10 1 7 1;
#X connect 11 0 12 0;
#X connect 11 0 13 0;
#X connect 11 0 14 0;
#X connect 12 0 6 0;
#X connect 13 0 6 1;
#X connect 14 0 6 2;
#X restore 108 307 pd changehradio;
#X connect 0 0 3 0;
#X connect 1 0 2 0;
#X connect 2 0 28 0;
#X connect 3 0 5 0;
#X connect 3 1 6 0;
#X connect 3 2 7 0;
#X connect 3 3 8 0;
#X connect 3 4 9 0;
#X connect 3 5 10 0;
#X connect 3 6 11 0;
#X connect 3 7 12 0;
#X connect 3 8 13 0;
#X connect 3 9 14 0;
#X connect 3 10 15 0;
#X connect 3 11 16 0;
#X connect 3 12 17 0;
#X connect 3 13 18 0;
#X connect 3 14 19 0;
#X connect 3 15 20 0;
#X connect 5 0 4 0;
#X connect 6 0 4 0;
#X connect 7 0 4 0;
#X connect 8 0 4 0;
#X connect 9 0 4 0;
#X connect 10 0 4 0;
#X connect 11 0 4 0;
#X connect 12 0 4 0;
#X connect 13 0 4 0;
#X connect 14 0 4 0;
#X connect 15 0 4 0;
#X connect 16 0 4 0;
#X connect 17 0 4 0;
#X connect 18 0 4 0;
#X connect 19 0 4 0;
#X connect 20 0 4 0;
#X connect 21 0 5 1;
#X connect 21 1 6 1;
#X connect 21 2 7 1;
#X connect 21 3 8 1;
#X connect 21 4 9 1;
#X connect 21 5 10 1;
#X connect 21 6 11 1;
#X connect 21 7 12 1;
#X connect 21 8 13 1;
#X connect 21 9 14 1;
#X connect 21 10 15 1;
#X connect 21 11 16 1;
#X connect 21 12 17 1;
#X connect 21 13 18 1;
#X connect 21 14 19 1;
#X connect 21 15 20 1;
#X connect 23 0 28 0;
#X connect 28 0 21 0;
#X connect 28 0 22 0;
#X coords 0 -1 1 1 85 60 1 100 100;
