#N canvas 3 144 1136 719 10;
#X obj 26 -15 adc~;
#X obj 25 113 amp~;
#X obj 25 74 swap~;
#X obj 29 478 dac~;
#X obj 86 50 tgl 15 0 empty empty empty 17 7 0 10 -262144 -1 -1 1 1
;
#X obj 86 91 line;
#X msg 86 69 \$1 1000;
#X obj 86 114 *;
#X obj 164 121 amp~;
#X obj 228 51 tgl 15 0 empty empty empty 17 7 0 10 -262144 -1 -1 0
1;
#X obj 228 92 line;
#X msg 228 70 \$1 1000;
#X obj 228 115 *;
#X obj 28 224 catch~ mysig;
#X obj 25 172 throw~ mysig;
#X obj 164 171 throw~ mysig;
#X obj 164 69 freeverb~;
#X obj 226 136 * 12;
#X msg 297 463 roomsize \$1;
#X msg 297 485 damping \$1;
#X msg 297 507 width \$1;
#X msg 297 529 wet \$1;
#X msg 297 551 dry \$1;
#X floatatom 258 461 5 0 0 0 - - -;
#X obj 363 543 s tofreeverb;
#X obj 173 27 r tofreeverb;
#X floatatom 259 483 5 0 0 0 - - -;
#X floatatom 258 506 5 0 0 0 - - -;
#X floatatom 259 529 5 0 0 0 - - -;
#X floatatom 259 550 5 0 0 0 - - -;
#X obj 298 124 amp~;
#X obj 384 53 tgl 15 0 empty empty empty 17 7 0 10 -262144 -1 -1 1
1;
#X obj 381 95 line;
#X msg 381 73 \$1 1000;
#X obj 381 118 *;
#X obj 343 175 throw~ mysig;
#X obj 293 94 svf~ 400 0.97;
#X obj 379 139 * 1;
#X floatatom 336 56 5 0 0 0 - - -;
#X obj 305 0 key;
#X obj 304 26 mtof;
#X obj 29 452 pansig~;
#X obj 83 145 * 0.3;
#X msg 303 263 coef 1 \$1;
#X floatatom 303 207 5 0 0 0 - - -;
#X obj 303 231 dbtorms;
#X floatatom 382 208 5 0 0 0 - - -;
#X obj 382 232 dbtorms;
#X floatatom 461 208 5 0 0 0 - - -;
#X obj 461 232 dbtorms;
#X floatatom 540 207 5 0 0 0 - - -;
#X obj 540 231 dbtorms;
#X msg 382 264 coef 2 \$1;
#X msg 461 264 coef 3 \$1;
#X msg 540 264 coef 4 \$1;
#X obj 303 295 cheby~ 4;
#X floatatom 412 138 5 0 0 0 - - -;
#X floatatom 558 406 5 0 0 2 delay_time - -;
#N canvas 64 97 649 473 delay 0;
#X obj 103 196 +~;
#X obj 52 93 *~;
#X obj 259 219 +~;
#X obj 407 243 +~;
#X obj 366 296 *~ 0.25;
#X obj 366 325 outlet~;
#X obj 20 49 inlet~;
#X obj 68 49 inlet;
#X obj 336 38 inlet;
#X obj 336 82 * 2;
#X obj 365 82 * 4;
#X obj 423 85 * 8;
#X obj 119 141 delwrite~ del4 1000;
#X obj 277 139 delwrite~ del5 1000;
#X obj 420 139 delwrite~ del6 1000;
#X obj 119 165 delread~ del4 10;
#X obj 275 163 delread~ del5 20;
#X obj 423 163 delread~ del6 30;
#X obj 208 49 inlet;
#X obj 119 89 *~;
#X obj 407 272 s~ feedback;
#X obj 119 50 r~ feedback;
#X text 8 16 audio in;
#X text 69 23 gain;
#X text 201 25 feedback;
#X text 329 18 delay time;
#X obj 208 72 * 0.01;
#X connect 0 0 2 0;
#X connect 1 0 0 0;
#X connect 1 0 12 0;
#X connect 1 0 13 0;
#X connect 1 0 14 0;
#X connect 2 0 3 0;
#X connect 3 0 4 0;
#X connect 3 0 20 0;
#X connect 4 0 5 0;
#X connect 6 0 1 0;
#X connect 7 0 1 1;
#X connect 8 0 9 0;
#X connect 8 0 10 0;
#X connect 8 0 11 0;
#X connect 9 0 15 0;
#X connect 10 0 16 0;
#X connect 11 0 17 0;
#X connect 15 0 0 1;
#X connect 16 0 2 1;
#X connect 17 0 3 1;
#X connect 18 0 26 0;
#X connect 19 0 12 0;
#X connect 19 0 13 0;
#X connect 19 0 14 0;
#X connect 21 0 19 0;
#X connect 26 0 19 1;
#X restore 473 419 pd delay;
#X obj 490 340 tgl 30 0 empty empty empty 0 -6 0 8 -258699 -1 -1 1
1;
#X floatatom 507 389 5 0 35 2 feedback - -;
#N canvas 235 101 213 226 echo 0;
#X obj 21 129 +~;
#X obj 21 40 *~;
#X obj 21 193 outlet~;
#X obj 21 7 inlet~;
#X obj 73 7 inlet;
#X obj 124 6 inlet;
#X obj 21 162 *~ 0.5;
#X obj 37 104 delread~ del20 10;
#X obj 37 69 delwrite~ del20 2000;
#X connect 0 0 6 0;
#X connect 1 0 0 0;
#X connect 1 0 8 0;
#X connect 3 0 1 0;
#X connect 4 0 1 1;
#X connect 5 0 7 0;
#X connect 6 0 2 0;
#X connect 7 0 0 1;
#X restore 361 414 pd echo;
#X floatatom 405 393 5 0 0 2 delay_time - -;
#X obj 383 339 tgl 30 0 empty empty empty 0 -6 0 8 -258699 -1 -1 0
1;
#X obj 486 83 amp~;
#X obj 547 20 tgl 15 0 empty empty empty 17 7 0 10 -262144 -1 -1 0
1;
#X obj 547 61 line;
#X msg 547 39 \$1 1000;
#X obj 547 84 *;
#X obj 486 142 throw~ mysig;
#X obj 486 44 permut~;
#X obj 545 115 * 1;
#X obj 894 200 env~;
#X floatatom 894 224 5 0 0 0 - - -;
#X obj 897 246 hsl 128 15 0 127 0 0 empty empty empty -2 -8 0 10 -262144
-1 -1 4682 1;
#X floatatom 658 61 5 0 0 0 - - -;
#X msg 900 95 linear 32 1000 1005;
#X msg 900 116 linear 32 100 2015;
#X msg 901 48 linear 8 75 100;
#X msg 901 25 linear 32 50 2175;
#X obj 634 143 fdn~ 64 4000;
#X msg 893 147 linear 64 5 4000;
#X obj 894 288 edge;
#X obj 894 266 > 50;
#X obj 894 312 counter 0 1 6;
#X obj 751 -3 select 1 2 3 4 5 6;
#X obj 630 104 dist~ 1.2;
#X obj 643 245 throw~ mysig;
#X obj 730 70 tgl 15 0 empty empty empty 17 7 0 10 -262144 -1 -1 0
1;
#X obj 730 111 line;
#X msg 730 89 \$1 1000;
#X obj 730 134 *;
#X obj 728 165 * 1;
#X obj 643 179 amp~;
#X floatatom 898 369 5 0 0 0 - - -;
#X msg 902 72 linear 32 100 190;
#X obj 790 337 switch 2;
#X msg 807 294 2;
#X msg 777 294 1;
#X floatatom 786 395 5 0 0 0 - - -;
#X floatatom 848 298 5 0 0 0 - - -;
#X obj 117 241 sig~ 0;
#X floatatom 175 210 4 0 0 0 - - -;
#X obj 175 235 / 100;
#X text 541 340 28 162;
#X obj 122 462 hsl 128 15 0 1 0 0 empty empty empty -2 -8 0 10 -262144
-1 -1 10500 1;
#X obj 121 483 hsl 128 15 0 1 0 0 empty empty empty -2 -8 0 10 -262144
-1 -1 6000 1;
#X obj 120 506 hsl 128 15 0 1 0 0 empty empty empty -2 -8 0 10 -262144
-1 -1 9600 1;
#X obj 120 528 hsl 128 15 0 1 0 0 empty empty empty -2 -8 0 10 -262144
-1 -1 10700 1;
#X obj 121 554 hsl 128 15 0 1 0 0 empty empty empty -2 -8 0 10 -262144
-1 -1 0 1;
#X obj 605 722;
#X text 543 357 21 77;
#X connect 0 0 2 0;
#X connect 0 0 16 0;
#X connect 0 0 36 0;
#X connect 0 0 70 0;
#X connect 0 0 86 0;
#X connect 0 0 72 0;
#X connect 1 0 14 0;
#X connect 2 0 1 0;
#X connect 4 0 6 0;
#X connect 5 0 7 1;
#X connect 5 0 7 0;
#X connect 6 0 5 0;
#X connect 7 0 42 0;
#X connect 8 0 15 0;
#X connect 9 0 11 0;
#X connect 10 0 12 1;
#X connect 10 0 12 0;
#X connect 11 0 10 0;
#X connect 12 0 17 0;
#X connect 13 0 61 0;
#X connect 13 0 41 0;
#X connect 13 0 58 0;
#X connect 16 0 8 0;
#X connect 16 1 8 0;
#X connect 17 0 8 1;
#X connect 18 0 24 0;
#X connect 19 0 24 0;
#X connect 20 0 24 0;
#X connect 21 0 24 0;
#X connect 22 0 24 0;
#X connect 23 0 18 0;
#X connect 25 0 16 0;
#X connect 26 0 19 0;
#X connect 27 0 20 0;
#X connect 28 0 21 0;
#X connect 29 0 22 0;
#X connect 30 0 55 0;
#X connect 31 0 33 0;
#X connect 32 0 34 1;
#X connect 32 0 34 0;
#X connect 33 0 32 0;
#X connect 34 0 37 0;
#X connect 36 1 30 0;
#X connect 37 0 30 1;
#X connect 38 0 36 2;
#X connect 39 0 40 0;
#X connect 40 0 36 1;
#X connect 41 0 3 0;
#X connect 41 1 3 1;
#X connect 42 0 1 1;
#X connect 43 0 55 0;
#X connect 44 0 45 0;
#X connect 45 0 43 0;
#X connect 46 0 47 0;
#X connect 47 0 52 0;
#X connect 48 0 49 0;
#X connect 49 0 53 0;
#X connect 50 0 51 0;
#X connect 51 0 54 0;
#X connect 52 0 55 0;
#X connect 53 0 55 0;
#X connect 54 0 55 0;
#X connect 55 0 35 0;
#X connect 56 0 37 1;
#X connect 57 0 58 3;
#X connect 58 0 41 0;
#X connect 59 0 58 1;
#X connect 60 0 58 2;
#X connect 61 0 41 0;
#X connect 62 0 61 2;
#X connect 63 0 61 1;
#X connect 64 0 69 0;
#X connect 65 0 67 0;
#X connect 66 0 68 1;
#X connect 66 0 68 0;
#X connect 67 0 66 0;
#X connect 68 0 71 0;
#X connect 70 0 64 0;
#X connect 71 0 64 1;
#X connect 72 0 73 0;
#X connect 73 0 74 0;
#X connect 74 0 83 0;
#X connect 75 0 86 1;
#X connect 76 0 80 0;
#X connect 77 0 80 0;
#X connect 78 0 80 0;
#X connect 79 0 80 0;
#X connect 80 0 93 0;
#X connect 80 1 93 0;
#X connect 81 0 80 0;
#X connect 82 0 84 0;
#X connect 83 0 82 0;
#X connect 84 0 94 0;
#X connect 84 0 96 2;
#X connect 85 0 79 0;
#X connect 85 1 78 0;
#X connect 85 2 95 0;
#X connect 85 3 76 0;
#X connect 85 4 77 0;
#X connect 85 5 81 0;
#X connect 86 0 80 0;
#X connect 88 0 90 0;
#X connect 89 0 91 1;
#X connect 89 0 91 0;
#X connect 90 0 89 0;
#X connect 91 0 92 0;
#X connect 92 0 93 1;
#X connect 93 0 87 0;
#X connect 95 0 80 0;
#X connect 96 0 85 0;
#X connect 96 0 99 0;
#X connect 97 0 96 0;
#X connect 98 0 96 0;
#X connect 100 0 96 1;
#X connect 101 0 41 1;
#X connect 102 0 103 0;
#X connect 105 0 23 0;
#X connect 106 0 26 0;
#X connect 107 0 27 0;
#X connect 108 0 28 0;
#X connect 109 0 29 0;
