#N canvas 733 22 450 300 10;
#X obj 204 80 table poop;
#X obj 77 72 tabplay~ poop;
#X obj 87 236 dac~;
#X obj 77 44 bng 15 250 50 0 empty empty empty 17 7 0 10 -262144 -1
-1;
#X obj 221 194 soundfiler;
#X obj 223 145 openpanel;
#X msg 222 163 read -resize \$1 poop;
#X obj 224 117 bng 15 250 50 0 empty empty empty 17 7 0 10 -262144
-1 -1;
#X obj 78 104 permut~;
#X obj 103 127 freqshift~;
#X floatatom 154 98 5 0 0 0 - - -;
#X obj 70 193 decimate~ 0.4 12;
#X floatatom 159 162 5 0 0 0 - - -;
#X floatatom 116 164 5 0 0 0 - - -;
#X msg 113 22 \; poop normalize;
#X connect 1 0 8 0;
#X connect 3 0 1 0;
#X connect 5 0 6 0;
#X connect 6 0 4 0;
#X connect 7 0 5 0;
#X connect 8 0 9 0;
#X connect 9 1 11 0;
#X connect 10 0 9 1;
#X connect 11 0 2 0;
#X connect 11 0 2 1;
#X connect 12 0 11 2;
#X connect 13 0 11 1;
