#N canvas 891 22 450 300 10;
#X obj 57 20 keyname;
#X obj 220 245 print;
#X obj 101 136 symbol;
#X obj 57 104 t s b;
#X obj 57 199 sprintf %s%s;
#X obj 134 105 tosymbol;
#X msg 145 52 .;
#X obj 65 64 gate;
#X obj 221 220 zl rev;
#X connect 0 0 7 0;
#X connect 0 1 7 1;
#X connect 2 0 4 1;
#X connect 3 0 4 0;
#X connect 3 1 2 0;
#X connect 4 0 5 0;
#X connect 4 0 8 0;
#X connect 5 0 2 1;
#X connect 6 0 2 0;
#X connect 7 0 3 0;
#X connect 8 0 1 0;
