#N canvas 512 145 566 441 10;
#X obj 58 13 keyname;
#X obj 94 260 symbol;
#X obj 50 239 t s b;
#X obj 49 284 sprintf %s%s;
#X obj 127 229 tosymbol;
#X msg 127 207 .;
#X obj 58 37 gate;
#X text 119 22 A bad attempt to dynamically type into a PD window;
#X text 198 48 Totally broken;
#X text 285 151 less than 127 and geater than 32;
#X obj 58 60 select Space;
#X obj 290 175 l2s;
#X obj 290 199 unsymbol;
#X obj 282 268 reverse;
#X connect 0 0 6 0;
#X connect 0 1 6 1;
#X connect 1 0 3 1;
#X connect 2 0 3 0;
#X connect 2 1 1 0;
#X connect 3 0 4 0;
#X connect 4 0 1 1;
#X connect 5 0 1 0;
#X connect 6 0 10 0;
#X connect 10 1 2 0;
