#N canvas 43 22 531 575 12;
#X obj 146 188 / 100;
#X floatatom 146 167 4 0 100 0 - - -;
#X obj 222 189 / 100;
#X floatatom 222 168 4 0 100 0 - - -;
#X obj 35 176 phasor~;
#X floatatom 35 155 5 0 0 0 - - -;
#X text 27 132 frequency;
#X text 142 131 SLOPES (percent);
#X obj 124 218 *~;
#X obj 35 210 *~ -1;
#X obj 35 235 +~ 1;
#X obj 200 237 *~;
#X obj 124 270 min~;
#X text 30 4 Making waveforms with corners by specifying line segment
slopes;
#X text 152 148 up;
#X text 225 149 down;
#X obj 124 332 -~ 1;
#X obj 123 299 *~ 4;
#X obj 346 288 +;
#X obj 346 254 t b f;
#X obj 346 313 / 2;
#X obj 124 370 outlet~;
#X text 394 257 offsets DC bias;
#X obj 35 87 inlet;
#X obj 149 82 inlet;
#X obj 231 82 inlet;
#X connect 0 0 8 1;
#X connect 0 0 18 0;
#X connect 1 0 0 0;
#X connect 2 0 11 1;
#X connect 2 0 19 0;
#X connect 3 0 2 0;
#X connect 4 0 8 0;
#X connect 4 0 9 0;
#X connect 5 0 4 0;
#X connect 8 0 12 0;
#X connect 9 0 10 0;
#X connect 10 0 11 0;
#X connect 11 0 12 1;
#X connect 12 0 17 0;
#X connect 16 0 21 0;
#X connect 17 0 16 0;
#X connect 18 0 20 0;
#X connect 19 0 18 0;
#X connect 19 1 18 1;
#X connect 20 0 16 1;
#X connect 23 0 5 0;
#X connect 24 0 1 0;
#X connect 25 0 3 0;
