#N canvas 301 186 635 663 10;
#N canvas 512 381 450 300 paf 0;
#X obj 57 46 inlet~;
#X obj 252 54 inlet;
#X obj 59 255 outlet~;
#X obj 205 233 line~;
#X obj 205 209 pack 0 50;
#X floatatom 205 108 0 0 0 0 - - -;
#X obj 117 119 *~;
#X obj 205 134 / 10;
#X obj 205 158 moses 0;
#X msg 205 182 0;
#X text 200 90 bandwidth;
#X obj 125 152 *~;
#X obj 65 152 sig~ 1;
#X obj 86 205 /~;
#X obj 101 179 +~;
#X text 158 152 X^2;
#X text 131 182 1+X^2;
#X text 118 207 1/(1+X^2);
#X connect 0 0 6 0;
#X connect 1 0 5 0;
#X connect 3 0 6 1;
#X connect 4 0 3 0;
#X connect 5 0 7 0;
#X connect 6 0 11 0;
#X connect 6 0 11 1;
#X connect 7 0 8 0;
#X connect 8 0 9 0;
#X connect 8 1 4 0;
#X connect 9 0 4 0;
#X connect 11 0 14 1;
#X connect 12 0 13 0;
#X connect 12 0 14 0;
#X connect 13 0 2 0;
#X connect 14 0 13 1;
#X restore 73 222 pd paf;
#X obj 80 345 *~;
#X msg 254 145 100;
#X obj 189 73 random 60;
#X obj 189 95 + 20;
#X obj 189 40 bng 15 250 50 0 empty empty empty 17 7 0 10 -262144 -1
-1;
#X obj 81 388 dac~;
#X obj 188 116 mtof;
#X obj 344 157 unsig~;
#X obj 345 180 * 100;
#X obj 345 131 phasor~ 0.1;
#X obj 343 226 + 50;
#X obj 213 180 expr ($f1 * 50) + 50;
#X obj 78 178 synth.triangleosc~;
#X obj 99 315 ead~ 100 2000;
#X connect 0 0 1 0;
#X connect 1 0 6 0;
#X connect 1 0 6 1;
#X connect 2 0 0 1;
#X connect 2 0 13 1;
#X connect 2 0 13 2;
#X connect 3 0 4 0;
#X connect 4 0 7 0;
#X connect 5 0 3 0;
#X connect 5 0 14 0;
#X connect 7 0 13 0;
#X connect 8 0 9 0;
#X connect 8 0 12 0;
#X connect 9 0 11 0;
#X connect 10 0 8 0;
#X connect 11 0 0 1;
#X connect 12 0 13 2;
#X connect 13 0 0 0;
#X connect 14 0 1 1;
