#N canvas 626 22 488 312 10;
#X obj 39 224 dac~;
#X obj 38 196 receive~ mainout;
#X obj 44 111 moog~;
#X floatatom 130 60 5 0 0 0 - - -;
#X obj 27 59 noise~;
#X obj 49 149 send~ mainout;
#X obj 27 27 tgl 15 0 empty empty empty 0 -6 0 10 -262144 -1 -1 1 1
;
#N canvas 531 109 454 304 logic 0;
#X obj 243 10 inlet;
#X obj 89 56 line~;
#X msg 199 126 1000 1000;
#X msg 324 124 3000 7281;
#X obj 249 73 random 3;
#X obj 244 49 metro 1000;
#X obj 334 73 random 2000;
#X obj 243 173 bng 15 250 50 0 empty empty empty 0 -6 0 10 -262144
-1 -1;
#X obj 273 169 bng 15 250 50 0 empty empty empty 0 -6 0 10 -262144
-1 -1;
#X obj 312 172 bng 15 250 50 0 empty empty empty 0 -6 0 10 -262144
-1 -1;
#X obj 244 92 select 1 2 0;
#X msg 270 126 400 793;
#X obj 27 262 outlet~;
#X connect 0 0 5 0;
#X connect 1 0 12 0;
#X connect 2 0 1 0;
#X connect 3 0 1 0;
#X connect 4 0 10 0;
#X connect 5 0 4 0;
#X connect 5 0 6 0;
#X connect 6 0 5 1;
#X connect 10 0 2 0;
#X connect 10 0 7 0;
#X connect 10 1 11 0;
#X connect 10 1 8 0;
#X connect 10 2 3 0;
#X connect 10 2 9 0;
#X connect 11 0 1 0;
#X restore 75 59 pd logic;
#X text 53 28 start/stop;
#X text 165 60 filter q;
#X obj 128 84 loadbang;
#X msg 128 106 1.34;
#X connect 1 0 0 0;
#X connect 1 0 0 1;
#X connect 2 0 5 0;
#X connect 3 0 2 2;
#X connect 4 0 2 0;
#X connect 6 0 7 0;
#X connect 7 0 2 1;
#X connect 10 0 11 0;
#X connect 11 0 3 0;
