#N canvas 464 317 450 300 10;
#X obj 287 142 ead~ 5 100;
#X obj 288 118 metro 200;
#X obj 103 121 tgl 15 0 empty empty empty 17 7 0 10 -262144 -1 -1 0
1;
#X floatatom 103 141 5 0 0 0 - - -;
#X obj 231 144 noise~;
#X obj 257 215 outlet~;
#X obj 259 188 *~;
#X text 137 141 tempo;
#X text 138 120 on/off;
#X connect 0 0 6 1;
#X connect 1 0 0 0;
#X connect 2 0 1 0;
#X connect 3 0 1 1;
#X connect 4 0 6 0;
#X connect 6 0 5 0;
#X coords 0 -1 1 1 85 60 1 100 100;
