#N canvas 528 22 785 386 10;
#X obj 38 294 dac~;
#X obj 90 108 bellinput;
#X floatatom 156 -36 5 0 0 0 - - -;
#X obj 157 -7 mtof;
#X obj 76 19 adc~ 3 4 5 6 7 8;
#X obj 90 136 throw~ \$0-bell;
#X obj 37 237 catch~ \$0-bell;
#X obj 186 107 bellinput;
#X obj 187 133 throw~ \$0-bell;
#X obj 37 161 permut~;
#X obj 37 206 throw~ \$0-bell;
#X obj 282 108 bellinput;
#X obj 283 134 throw~ \$0-bell;
#X obj 371 109 bellinput;
#X obj 372 135 throw~ \$0-bell;
#X obj 463 108 bellinput;
#X obj 464 133 throw~ \$0-bell;
#X obj 562 108 bellinput;
#X obj 563 133 throw~ \$0-bell;
#X floatatom 214 -37 5 0 0 0 - - -;
#X obj 215 -8 mtof;
#X floatatom 276 -37 5 0 0 0 - - -;
#X obj 277 -8 mtof;
#X floatatom 335 -38 5 0 0 0 - - -;
#X obj 336 -9 mtof;
#X floatatom 394 -39 5 0 0 0 - - -;
#X obj 395 -10 mtof;
#X floatatom 455 -38 5 0 0 0 - - -;
#X obj 456 -9 mtof;
#X obj 37 263 compressor~ 2;
#X obj 37 184 distortion.waveshaping.bram 0.26;
#X text 515 -22 60 50 54 64 61 45;
#X connect 1 0 5 0;
#X connect 2 0 3 0;
#X connect 3 0 1 1;
#X connect 4 0 1 0;
#X connect 4 0 9 0;
#X connect 4 1 7 0;
#X connect 4 1 9 0;
#X connect 4 2 9 0;
#X connect 4 2 11 0;
#X connect 4 3 9 0;
#X connect 4 3 13 0;
#X connect 4 4 9 0;
#X connect 4 4 15 0;
#X connect 4 5 9 0;
#X connect 4 5 17 0;
#X connect 6 0 29 0;
#X connect 7 0 8 0;
#X connect 9 0 30 0;
#X connect 11 0 12 0;
#X connect 13 0 14 0;
#X connect 15 0 16 0;
#X connect 17 0 18 0;
#X connect 19 0 20 0;
#X connect 20 0 7 1;
#X connect 21 0 22 0;
#X connect 22 0 11 1;
#X connect 23 0 24 0;
#X connect 24 0 13 1;
#X connect 25 0 26 0;
#X connect 26 0 15 1;
#X connect 27 0 28 0;
#X connect 28 0 17 1;
#X connect 29 0 0 0;
#X connect 29 0 0 1;
#X connect 30 0 10 0;
