#N canvas 685 22 450 300 10;
#X obj 130 127 sawbuzz~;
#X obj 131 35 random 20;
#X obj 133 10 bng 15 250 50 0 empty empty empty 17 7 0 10 -262144 -1
-1;
#X obj 134 174 dac~;
#X obj 134 67 + 40;
#X obj 141 98 mtof;
#X connect 0 0 3 0;
#X connect 0 0 3 1;
#X connect 1 0 4 0;
#X connect 2 0 1 0;
#X connect 4 0 5 0;
#X connect 5 0 0 0;
