#N canvas 318 290 450 300 10;
#X obj 61 42 adc~ 1 2 3 4;
#X obj 256 135 bellinput;
#X obj 56 199 dac~;
#X obj 150 160 dsp.mygate;
#X obj 58 160 permut~;
#X obj 57 131 bellinput;
#X obj 191 134 bellinput;
#X floatatom 157 21 5 0 0 0 - - -;
#X obj 160 49 mtof;
#X connect 0 0 4 0;
#X connect 0 0 5 0;
#X connect 0 2 6 0;
#X connect 0 3 1 0;
#X connect 4 0 2 0;
#X connect 4 0 2 1;
#X connect 5 0 4 0;
#X connect 7 0 8 0;
#X connect 8 0 5 1;
