#N canvas 306 22 830 572 12;
#X declare -lib mrpeach;
#X obj 35 23 osc~ 500;
#X obj 36 163 dac~;
#X obj 684 31 vsl 15 128 0 127 0 0 empty \$0-coolslider empty 0 -9
0 10 -262144 -1 -1 5900 1;
#X obj 306 6 loadbang;
#X obj 523 65 s \$0-coolslider;
#X floatatom 525 34 5 0 0 0 - - -;
#X obj 306 67 f \$0;
#X obj 334 45 bng 15 250 50 0 empty empty empty 17 7 0 10 -262144 -1
-1;
#X msg 303 93 \; \$1-coolslider 73.843 \; myotherslider 40 \; somethingcool
827 \;;
#X obj 406 310 packOSC;
#X floatatom 406 241 5 0 0 0 - - -;
#X floatatom 115 39 5 0 0 0 - - -;
#X obj 35 70 dsp.gain~ 67;
#X obj 403 472 udpsend;
#X msg 447 350 connect 192.168.0.253 8000;
#X msg 470 310 disconnect;
#X text 641 348 greg;
#X text 636 373 alex;
#X msg 448 374 connect 192.168.0.218 8000;
#X msg 453 398 connect 192.168.0.146 8000;
#X text 644 401 jenny;
#X msg 406 277 send /adam/volume \$1;
#X msg 459 428 connect 192.168.187.45 8000;
#X text 657 428 cory;
#X obj 101 243 env~;
#X obj 102 354 hsl 128 15 0 127 0 0 empty empty empty -2 -8 0 10 -262144
-1 -1 6139 1;
#X msg 101 185 open /Users/adamtindale/bellphase1.wav;
#X obj 48 197 tgl 15 0 empty empty empty 17 7 0 10 -262144 -1 -1 0
1;
#X obj 158 253 fiddle~;
#X obj 171 294 unpack;
#X floatatom 244 351 5 0 0 0 - - -;
#X obj 173 218 adc~;
#X obj 243 400 osc~;
#X obj 244 381 mtof;
#X obj 198 490 *~;
#X obj 99 378 dbtorms;
#X obj 201 533 dac~;
#X connect 0 0 12 0;
#X connect 3 0 6 0;
#X connect 5 0 4 0;
#X connect 6 0 8 0;
#X connect 7 0 6 0;
#X connect 9 0 13 0;
#X connect 10 0 21 0;
#X connect 11 0 12 1;
#X connect 12 0 1 0;
#X connect 12 0 1 1;
#X connect 14 0 13 0;
#X connect 15 0 13 0;
#X connect 18 0 13 0;
#X connect 19 0 13 0;
#X connect 21 0 9 0;
#X connect 22 0 13 0;
#X connect 24 0 25 0;
#X connect 25 0 35 0;
#X connect 28 2 29 0;
#X connect 29 0 30 0;
#X connect 30 0 33 0;
#X connect 31 0 28 0;
#X connect 31 0 24 0;
#X connect 32 0 34 0;
#X connect 33 0 32 0;
#X connect 34 0 36 0;
#X connect 35 0 34 1;
