#N canvas 666 148 692 438 10;
#X obj 21 22 adc~;
#X obj 35 209 dac~;
#X obj 34 186 *~ 1;
#X text 82 33 586 32 0.99 \, 212 49 0.98;
#X obj 220 229 env~;
#X obj 223 253 hsl 128 15 0 127 0 0 empty empty empty -2 -8 0 10 -262144
-1 -1 0 1;
#X obj 306 189 sfwrite~;
#X msg 235 151 open /Users/adamtindale/thing.wav;
#X obj 271 127 tgl 15 0 empty empty empty 17 7 0 10 -262144 -1 -1 0
1;
#X obj 20 76 dsp.tube.biquad;
#X obj 122 76 dsp.tube.biquad;
#X obj 469 62 synth.pulser;
#X obj 469 267 dac~;
#X obj 469 135 dsp.tube.pitchshift;
#X connect 0 0 9 0;
#X connect 0 0 10 0;
#X connect 2 0 1 0;
#X connect 2 0 1 1;
#X connect 2 0 4 0;
#X connect 2 0 6 0;
#X connect 4 0 5 0;
#X connect 7 0 6 0;
#X connect 8 0 6 0;
#X connect 9 0 2 0;
#X connect 10 0 2 0;
#X connect 11 0 13 0;
#X connect 13 0 12 0;
#X connect 13 0 12 1;
