#N canvas 465 23 450 300 10;
#X obj 12 68 pack s \$0;
#X obj 12 108 soundfiler;
#X obj 266 61 table \$0-sample;
#X msg 12 48 /Users/adamtindale/bellphase1.wav;
#X obj 12 88 sprintf read -resize %s %d-sample;
#X obj 260 171 s \$0-sample;
#X msg 260 149 normalize;
#X msg 324 149 resize 7;
#X text 261 124 modify a table or array;
#X text 9 28 load a sound file;
#X connect 0 0 4 0;
#X connect 3 0 0 0;
#X connect 4 0 1 0;
#X connect 6 0 5 0;
#X connect 7 0 5 0;
